<svg width="120" height="43" viewBox="0 0 120 43" fill="none" xmlns="http://www.w3.org/2000/svg">
<path d="M39.0103 34.2582H32.9277V42.1731H21.6399V34.2582H0V26.6387L18.3647 0.826923H30.3543L13.6858 24.9849H21.9908V17.956H32.9277V24.9849H39.0103V34.2582Z" fill="#4447E2"/>
<path d="M59.4334 43C55.9242 43 52.805 42.1534 50.0756 40.4602C47.3463 38.7669 45.2018 36.3059 43.6421 33.0769C42.1215 29.8086 41.3612 25.9496 41.3612 21.5C41.3612 17.0504 42.1215 13.2111 43.6421 9.98214C45.2018 6.71383 47.3463 4.23306 50.0756 2.53984C52.805 0.846612 55.9242 0 59.4334 0C62.9036 0 66.0034 0.846612 68.7327 2.53984C71.4621 4.23306 73.5871 6.71383 75.1077 9.98214C76.6674 13.2111 77.4472 17.0504 77.4472 21.5C77.4472 25.9496 76.6674 29.8086 75.1077 33.0769C73.5871 36.3059 71.4621 38.7669 68.7327 40.4602C66.0034 42.1534 62.9036 43 59.4334 43ZM59.4334 33.4313C61.383 33.4313 62.9231 32.4863 64.0538 30.5962C65.2235 28.6667 65.8084 25.6346 65.8084 21.5C65.8084 17.3654 65.2235 14.353 64.0538 12.4629C62.9231 10.5334 61.383 9.56868 59.4334 9.56868C57.4449 9.56868 55.8658 10.5334 54.696 12.4629C53.5653 14.353 52.9999 17.3654 52.9999 21.5C52.9999 25.6346 53.5653 28.6667 54.696 30.5962C55.8658 32.4863 57.4449 33.4313 59.4334 33.4313Z" fill="#4447E2"/>
<path d="M120 34.2582H113.917V42.1731H102.63V34.2582H80.9897V26.6387L99.3544 0.826923H111.344L94.6755 24.9849H102.981V17.956H113.917V24.9849H120V34.2582Z" fill="#4447E2"/>
</svg>
