<svg width="32" height="32" viewBox="0 0 32 32" fill="none" xmlns="http://www.w3.org/2000/svg">
<path d="M15.9999 2.6665C8.65323 2.6665 2.66656 8.65317 2.66656 15.9998C2.66656 23.3465 8.65323 29.3332 15.9999 29.3332C23.3466 29.3332 29.3332 23.3465 29.3332 15.9998C29.3332 8.65317 23.3466 2.6665 15.9999 2.6665ZM21.7999 20.7598C21.6132 21.0798 21.2799 21.2532 20.9332 21.2532C20.7599 21.2532 20.5866 21.2132 20.4266 21.1065L16.2932 18.6398C15.2666 18.0265 14.5066 16.6798 14.5066 15.4932V10.0265C14.5066 9.47984 14.9599 9.0265 15.5066 9.0265C16.0532 9.0265 16.5066 9.47984 16.5066 10.0265V15.4932C16.5066 15.9732 16.9066 16.6798 17.3199 16.9198L21.4532 19.3865C21.9332 19.6665 22.0932 20.2798 21.7999 20.7598Z" fill="white"/>
</svg>
