<svg width="28" height="28" viewBox="0 0 28 28" fill="none" xmlns="http://www.w3.org/2000/svg">
<path d="M14 0.666504C6.65329 0.666504 0.666626 6.65317 0.666626 13.9998C0.666626 21.3465 6.65329 27.3332 14 27.3332C21.3466 27.3332 27.3333 21.3465 27.3333 13.9998C27.3333 6.65317 21.3466 0.666504 14 0.666504ZM19.8 18.7598C19.6133 19.0798 19.28 19.2532 18.9333 19.2532C18.76 19.2532 18.5866 19.2132 18.4266 19.1065L14.2933 16.6398C13.2666 16.0265 12.5066 14.6798 12.5066 13.4932V8.0265C12.5066 7.47984 12.96 7.0265 13.5066 7.0265C14.0533 7.0265 14.5066 7.47984 14.5066 8.0265V13.4932C14.5066 13.9732 14.9066 14.6798 15.32 14.9198L19.4533 17.3865C19.9333 17.6665 20.0933 18.2798 19.8 18.7598Z" fill="#2487FE"/>
</svg>
