<svg width="38" height="38" viewBox="0 0 38 38" fill="none" xmlns="http://www.w3.org/2000/svg">
<path d="M34.8334 7.9165V11.0832C34.8334 13.9807 33.5192 15.5482 30.8751 15.7857C30.6217 15.8173 30.3526 15.8332 30.0834 15.8332H7.91675C7.64758 15.8332 7.37841 15.8173 7.12508 15.7857C4.48091 15.5482 3.16675 13.9807 3.16675 11.0832V7.9165C3.16675 4.74984 4.75008 3.1665 7.91675 3.1665H30.0834C33.2501 3.1665 34.8334 4.74984 34.8334 7.9165Z" fill="white"/>
<path d="M8.70833 17.8125C7.8375 17.8125 7.125 18.525 7.125 19.3958V30.0833C7.125 33.25 7.91667 34.8333 11.875 34.8333H26.125C30.0833 34.8333 30.875 33.25 30.875 30.0833V19.3958C30.875 18.525 30.1625 17.8125 29.2917 17.8125H8.70833ZM21.8817 24.9375H16.1183C15.4692 24.9375 14.9308 24.3992 14.9308 23.75C14.9308 23.1008 15.4692 22.5625 16.1183 22.5625H21.8817C22.5308 22.5625 23.0692 23.1008 23.0692 23.75C23.0692 24.3992 22.5308 24.9375 21.8817 24.9375Z" fill="white"/>
</svg>
