<svg width="42" height="42" viewBox="0 0 42 42" fill="none" xmlns="http://www.w3.org/2000/svg">
<path d="M17.1834 32.9012C16.8588 32.9012 16.5343 32.7816 16.278 32.5253L5.90843 22.1557C5.41301 21.6603 5.41301 20.8403 5.90843 20.3449L16.278 9.97532C16.7734 9.47991 17.5934 9.47991 18.0888 9.97532C18.5843 10.4707 18.5843 11.2907 18.0888 11.7862L8.62468 21.2503L18.0888 30.7145C18.5843 31.2099 18.5843 32.0299 18.0888 32.5253C17.8497 32.7816 17.508 32.9012 17.1834 32.9012Z" fill="white"/>
<path d="M35.8555 22.5317H7.10425C6.40383 22.5317 5.823 21.9509 5.823 21.2505C5.823 20.5501 6.40383 19.9692 7.10425 19.9692H35.8555C36.5559 19.9692 37.1368 20.5501 37.1368 21.2505C37.1368 21.9509 36.5559 22.5317 35.8555 22.5317Z" fill="white"/>
</svg>
