<svg width="38" height="38" viewBox="0 0 38 38" fill="none" xmlns="http://www.w3.org/2000/svg">
<path d="M28.4999 9.50008C27.5341 9.50008 26.6474 8.94592 26.2041 8.09092L25.0641 5.79508C24.3358 4.35425 22.4358 3.16675 20.8208 3.16675H17.1949C15.5641 3.16675 13.6641 4.35425 12.9358 5.79508L11.7958 8.09092C11.3524 8.94592 10.4658 9.50008 9.49994 9.50008C6.06411 9.50008 3.34077 12.3976 3.56244 15.8176L4.38577 28.8959C4.57577 32.1576 6.33327 34.8334 10.7033 34.8334H27.2966C31.6666 34.8334 33.4083 32.1576 33.6141 28.8959L34.4374 15.8176C34.6591 12.3976 31.9358 9.50008 28.4999 9.50008ZM16.6249 11.4792H21.3749C22.0241 11.4792 22.5624 12.0176 22.5624 12.6667C22.5624 13.3159 22.0241 13.8542 21.3749 13.8542H16.6249C15.9758 13.8542 15.4374 13.3159 15.4374 12.6667C15.4374 12.0176 15.9758 11.4792 16.6249 11.4792ZM18.9999 28.6901C16.0549 28.6901 13.6483 26.2992 13.6483 23.3384C13.6483 20.3776 16.0391 17.9867 18.9999 17.9867C21.9608 17.9867 24.3516 20.3776 24.3516 23.3384C24.3516 26.2992 21.9449 28.6901 18.9999 28.6901Z" fill="white"/>
</svg>
