<svg width="22" height="22" viewBox="0 0 22 22" fill="none" xmlns="http://www.w3.org/2000/svg">
<path d="M11 20.1668C5.93729 20.1668 1.83337 16.0629 1.83337 11.0002C1.83337 5.93741 5.93729 1.8335 11 1.8335C16.0628 1.8335 20.1667 5.93741 20.1667 11.0002C20.1667 16.0629 16.0628 20.1668 11 20.1668ZM11.7073 8.99651C11.3167 9.38721 10.6834 9.38721 10.2928 8.99651L9.05613 7.7594C8.69804 7.40118 8.11733 7.40113 7.75917 7.75929V7.75929C7.401 8.11745 7.40106 8.69816 7.75928 9.05626L8.99639 10.2929C9.38708 10.6835 9.38708 11.3168 8.99639 11.7074L7.75928 12.9441C7.40106 13.3022 7.401 13.8829 7.75917 14.241V14.241C8.11733 14.5992 8.69804 14.5991 9.05613 14.2409L10.2928 13.0038C10.6834 12.6131 11.3167 12.6131 11.7073 13.0038L12.9439 14.2409C13.302 14.5991 13.8828 14.5992 14.2409 14.241V14.241C14.5991 13.8829 14.599 13.3022 14.2408 12.9441L13.0037 11.7074C12.613 11.3168 12.613 10.6835 13.0037 10.2929L14.2408 9.05626C14.599 8.69816 14.5991 8.11745 14.2409 7.75929V7.75929C13.8828 7.40113 13.302 7.40118 12.9439 7.7594L11.7073 8.99651Z" fill="#FC5833"/>
</svg>
