<svg width="42" height="42" viewBox="0 0 42 42" fill="none" xmlns="http://www.w3.org/2000/svg">
<path d="M37.7486 17.2752C37.0482 17.2752 36.4674 16.6912 36.4674 15.987V12.5518C36.4674 8.12049 33.6144 5.25214 29.207 5.25214H25.7903C25.0899 5.25214 24.509 4.66817 24.509 3.96396C24.509 3.25976 25.0899 2.67578 25.7903 2.67578H29.207C35.0836 2.67578 39.0299 6.64338 39.0299 12.5518V15.987C39.0299 16.6912 38.449 17.2752 37.7486 17.2752Z" fill="white"/>
<path d="M3.58228 17.2752C2.88186 17.2752 2.30103 16.6912 2.30103 15.987V12.5518C2.30103 6.64338 6.24728 2.67578 12.1239 2.67578H15.5406C16.241 2.67578 16.8219 3.25976 16.8219 3.96396C16.8219 4.66817 16.241 5.25214 15.5406 5.25214H12.1239C7.71644 5.25214 4.86353 8.12049 4.86353 12.5518V15.987C4.86353 16.6912 4.28269 17.2752 3.58228 17.2752Z" fill="white"/>
<path d="M29.207 39.6035H25.7903C25.0899 39.6035 24.509 39.0196 24.509 38.3154C24.509 37.6111 25.0899 37.0272 25.7903 37.0272H29.207C33.6144 37.0272 36.4674 34.1588 36.4674 29.7275V26.2923C36.4674 25.5881 37.0482 25.0042 37.7486 25.0042C38.449 25.0042 39.0299 25.5881 39.0299 26.2923V29.7275C39.0299 35.6359 35.0836 39.6035 29.207 39.6035Z" fill="white"/>
<path d="M15.5406 39.6035H12.1239C6.24728 39.6035 2.30103 35.6359 2.30103 29.7275V26.2923C2.30103 25.5881 2.88186 25.0042 3.58228 25.0042C4.28269 25.0042 4.86353 25.5881 4.86353 26.2923V29.7275C4.86353 34.1588 7.71644 37.0272 12.1239 37.0272H15.5406C16.241 37.0272 16.8219 37.6111 16.8219 38.3154C16.8219 39.0196 16.241 39.6035 15.5406 39.6035Z" fill="white"/>
<path d="M24.1692 22.0214C24.7257 22.0214 25.1768 22.482 25.1768 23.0385C25.1768 25.8556 24.5078 28.5761 23.2473 31.018C23.1218 31.2524 22.8281 31.3379 22.5964 31.2075L22.1258 30.9427C21.6457 30.6725 21.4766 30.0669 21.7111 29.5683C22.5962 27.6859 23.0921 25.6304 23.1546 23.5022L23.1617 23.0385C23.1617 22.482 23.6128 22.0214 24.1692 22.0214ZM19.1315 19.9779C19.1315 19.4215 19.5826 18.9704 20.1391 18.9704C20.6955 18.9704 21.1466 19.4215 21.1466 19.9779V23.0385L21.1416 23.4239C21.0654 26.2082 20.1161 28.8963 18.4303 31.1014C18.3025 31.2633 18.0667 31.2886 17.9075 31.1575L17.4058 30.7446C16.9797 30.3938 16.9207 29.7672 17.2286 29.3091C18.3979 27.5698 19.0593 25.5253 19.1255 23.4107L19.1315 23.0385V19.9779ZM20.1391 14.9023C21.4752 14.9023 22.7565 15.4381 23.7013 16.3917C24.4088 17.1058 24.8841 18.0105 25.0782 18.9863C25.1868 19.532 24.7257 19.9874 24.1692 19.9874C23.6128 19.9874 23.1773 19.5246 22.9983 18.9977C22.8503 18.5621 22.6051 18.1618 22.2764 17.83C21.7095 17.2578 20.9407 16.9363 20.1391 16.9363C19.3374 16.9363 18.5686 17.2578 18.0018 17.83C17.4349 18.4022 17.1164 19.1782 17.1164 19.9874V23.0385C17.1164 25.3115 16.2903 27.4564 14.8283 29.1172C14.7113 29.2454 14.5115 29.2518 14.3864 29.1315L13.8729 28.6374C13.4759 28.2556 13.4681 27.6285 13.787 27.1794C14.5793 26.0635 15.0379 24.7326 15.0953 23.3466L15.1014 23.0385V19.9874C15.1014 18.6388 15.6321 17.3453 16.5769 16.3917C17.5216 15.4381 18.803 14.9023 20.1391 14.9023ZM20.1391 10.8342C22.544 10.8342 24.8505 11.7986 26.551 13.5151C28.2516 15.2317 29.2069 17.5598 29.2069 19.9874V23.0385C29.2069 24.7654 29.0034 26.4658 28.6054 28.1134C28.5285 28.4145 28.2195 28.5939 27.9199 28.5115L27.482 28.391C26.9505 28.2448 26.6398 27.6969 26.7558 27.1579C27.005 26.0011 27.1484 24.8173 27.1838 23.6161L27.1919 23.0385V19.9874C27.1919 18.6662 26.8276 17.371 26.1399 16.2468C25.4521 15.1226 24.468 14.2139 23.2977 13.6221C22.1274 13.0304 20.817 12.7791 19.5132 12.8964C18.509 12.9867 17.5391 13.2929 16.6675 13.7904C16.2193 14.0463 15.6445 14.0123 15.2814 13.6456C14.8523 13.2121 14.8898 12.4977 15.4086 12.1768C16.8258 11.3003 18.4623 10.8317 20.1391 10.8342ZM12.3939 15.2245C12.7125 14.6976 13.4353 14.6594 13.8688 15.0967C14.2265 15.4574 14.2593 16.0219 14.0093 16.4641C13.4455 17.4612 13.128 18.586 13.0903 19.7423L13.0863 19.9874L13.0903 22.0214C13.0903 23.1605 12.8243 24.2619 12.3226 25.2525C12.2366 25.4138 12.0342 25.4718 11.8758 25.3805L11.2723 25.0326C10.7979 24.7591 10.6437 24.1556 10.8161 23.6358C10.9561 23.2136 11.0407 22.7717 11.0662 22.3184L11.0752 22.0214V19.9874C11.0704 18.2998 11.5307 16.6522 12.3939 15.2245Z" fill="white"/>
</svg>
