<svg width="32" height="32" viewBox="0 0 32 32" fill="none" xmlns="http://www.w3.org/2000/svg">
<path d="M16.0001 2.6665C12.5067 2.6665 9.66675 5.5065 9.66675 8.99984C9.66675 12.4265 12.3467 15.1998 15.8401 15.3198C15.9467 15.3065 16.0534 15.3065 16.1334 15.3198C16.1601 15.3198 16.1734 15.3198 16.2001 15.3198C16.2134 15.3198 16.2134 15.3198 16.2267 15.3198C19.6401 15.1998 22.3201 12.4265 22.3334 8.99984C22.3334 5.5065 19.4934 2.6665 16.0001 2.6665Z" fill="#4447E2"/>
<path d="M22.7733 18.8668C19.0533 16.3868 12.9866 16.3868 9.23995 18.8668C7.54661 20.0002 6.61328 21.5335 6.61328 23.1735C6.61328 24.8135 7.54661 26.3335 9.22661 27.4535C11.0933 28.7068 13.5466 29.3335 15.9999 29.3335C18.4533 29.3335 20.9066 28.7068 22.7733 27.4535C24.4533 26.3202 25.3866 24.8002 25.3866 23.1468C25.3733 21.5068 24.4533 19.9868 22.7733 18.8668Z" fill="#4447E2"/>
</svg>
