<svg width="32" height="32" viewBox="0 0 32 32" fill="none" xmlns="http://www.w3.org/2000/svg">
<path d="M26.7201 9.09333L19.0401 3.72C16.9468 2.25333 13.7335 2.33333 11.7201 3.89333L5.04014 9.10666C3.70681 10.1467 2.65347 12.28 2.65347 13.96V23.16C2.65347 26.56 5.41347 29.3333 8.81347 29.3333H23.1868C26.5868 29.3333 29.3468 26.5733 29.3468 23.1733V14.1333C29.3468 12.3333 28.1868 10.12 26.7201 9.09333ZM17.0001 24C17.0001 24.5467 16.5468 25 16.0001 25C15.4535 25 15.0001 24.5467 15.0001 24V20C15.0001 19.4533 15.4535 19 16.0001 19C16.5468 19 17.0001 19.4533 17.0001 20V24Z" fill="#2487FE"/>
</svg>
