<svg width="28" height="28" viewBox="0 0 28 28" fill="none" xmlns="http://www.w3.org/2000/svg">
<path d="M24.7201 7.09333L17.0401 1.72C14.9468 0.253332 11.7334 0.333332 9.72011 1.89333L3.04011 7.10666C1.70678 8.14666 0.653442 10.28 0.653442 11.96V21.16C0.653442 24.56 3.41344 27.3333 6.81344 27.3333H21.1868C24.5868 27.3333 27.3468 24.5733 27.3468 21.1733V12.1333C27.3468 10.3333 26.1868 8.12 24.7201 7.09333ZM15.0001 22C15.0001 22.5467 14.5468 23 14.0001 23C13.4534 23 13.0001 22.5467 13.0001 22V18C13.0001 17.4533 13.4534 17 14.0001 17C14.5468 17 15.0001 17.4533 15.0001 18V22Z" fill="white"/>
</svg>
