<svg width="112" height="102" viewBox="0 0 112 102" fill="none" xmlns="http://www.w3.org/2000/svg">
    <defs>
        <linearGradient id="paint0_linear_640_24470" x1="28.7471" y1="32.408" x2="62.7722"
            y2="32.408" gradientUnits="userSpaceOnUse">
            <stop stop-color="white" />
            <stop offset="0.799087" stop-color="white" />
            <stop offset="1" stop-color="#EDEEF0" />
        </linearGradient>
        <linearGradient id="paint1_linear_640_24470" x1="18.8697" y1="65.7446" x2="72.5771"
            y2="65.7446" gradientUnits="userSpaceOnUse">
            <stop stop-color="white" />
            <stop offset="0.799087" stop-color="white" />
            <stop offset="1" stop-color="#EDEEF0" />
        </linearGradient>
        <linearGradient id="paint2_linear_640_24470" x1="30.7123" y1="12.8975" x2="58.5804"
            y2="12.8982" gradientUnits="userSpaceOnUse">
            <stop stop-color="#3BC3FC" />
            <stop offset="0.345542" stop-color="#7B7DF5" />
            <stop offset="1" stop-color="#4447E2" />
        </linearGradient>
        <linearGradient id="paint3_linear_640_24470" x1="20.8539" y1="47.5683" x2="67.1321"
            y2="47.5711" gradientUnits="userSpaceOnUse">
            <stop stop-color="#59A1F8" />
            <stop offset="0.345542" stop-color="#686BEF" />
            <stop offset="1" stop-color="#4447E2" />
        </linearGradient>
        <linearGradient id="paint4_linear_640_24470" x1="9.2632" y1="84.9991" x2="77.2534"
            y2="85.0038" gradientUnits="userSpaceOnUse">
            <stop stop-color="#5D90F5" />
            <stop offset="0.345542" stop-color="#5D60EB" />
            <stop offset="1" stop-color="#4447E2" />
        </linearGradient>
    </defs>
    <path
        d="M111.195 28.184C111.195 35.2815 105.452 41.0352 98.3672 41.0352H78.2116C71.1275 41.0352 65.3843 35.2815 65.3843 28.184C65.3843 21.0869 71.1275 15.3332 78.2116 15.3332H98.3672C105.452 15.3332 111.195 21.0869 111.195 28.184Z"
        fill="#BBDEFF" />
    <path
        d="M74.1197 33.354C73.4384 33.354 72.8497 33.236 72.3535 33.0001C71.8573 32.7641 71.4494 32.4397 71.1298 32.0268C70.8102 31.6055 70.5705 31.1126 70.4107 30.548C70.2593 29.975 70.1836 29.3515 70.1836 28.6774C70.1836 28.0033 70.2593 27.3797 70.4107 26.8068C70.5705 26.2253 70.8102 25.724 71.1298 25.3027C71.4494 24.8814 71.8573 24.5527 72.3535 24.3168C72.8497 24.0809 73.4384 23.9629 74.1197 23.9629C74.8009 23.9629 75.3896 24.0809 75.8858 24.3168C76.382 24.5527 76.79 24.8814 77.1095 25.3027C77.4291 25.724 77.6646 26.2253 77.816 26.8068C77.9758 27.3797 78.0557 28.0033 78.0557 28.6774C78.0557 29.3515 77.9758 29.975 77.816 30.548C77.6646 31.1126 77.4291 31.6055 77.1095 32.0268C76.79 32.4397 76.382 32.7641 75.8858 33.0001C75.3896 33.236 74.8009 33.354 74.1197 33.354ZM74.1197 31.812C75.4233 31.812 76.0751 30.7671 76.0751 28.6774C76.0751 27.6325 75.9153 26.8489 75.5957 26.3265C75.2845 25.804 74.7967 25.5428 74.1323 25.5428C72.8118 25.5428 72.1516 26.5877 72.1516 28.6774C72.1516 30.7671 72.8076 31.812 74.1197 31.812Z"
        fill="#4447E2" />
    <path
        d="M83.2733 33.354C82.5921 33.354 82.0034 33.236 81.5072 33.0001C81.0109 32.7641 80.603 32.4397 80.2834 32.0268C79.9639 31.6055 79.7242 31.1126 79.5644 30.548C79.413 29.975 79.3373 29.3515 79.3373 28.6774C79.3373 28.0033 79.413 27.3797 79.5644 26.8068C79.7242 26.2253 79.9639 25.724 80.2834 25.3027C80.603 24.8814 81.0109 24.5527 81.5072 24.3168C82.0034 24.0809 82.5921 23.9629 83.2733 23.9629C83.9546 23.9629 84.5433 24.0809 85.0395 24.3168C85.5357 24.5527 85.9436 24.8814 86.2632 25.3027C86.5828 25.724 86.8183 26.2253 86.9697 26.8068C87.1295 27.3797 87.2094 28.0033 87.2094 28.6774C87.2094 29.3515 87.1295 29.975 86.9697 30.548C86.8183 31.1126 86.5828 31.6055 86.2632 32.0268C85.9436 32.4397 85.5357 32.7641 85.0395 33.0001C84.5433 33.236 83.9546 33.354 83.2733 33.354ZM83.2733 31.812C84.5769 31.812 85.2288 30.7671 85.2288 28.6774C85.2288 27.6325 85.069 26.8489 84.7494 26.3265C84.4382 25.804 83.9504 25.5428 83.286 25.5428C81.9655 25.5428 81.3053 26.5877 81.3053 28.6774C81.3053 30.7671 81.9613 31.812 83.2733 31.812Z"
        fill="#4447E2" />
    <path
        d="M88.7307 24.0766C89.1175 24.0429 89.5086 24.0177 89.9039 24.0008C90.2992 23.9755 90.6987 23.9629 91.1024 23.9629C91.5229 23.9629 91.9476 24.005 92.3766 24.0893C92.8139 24.1735 93.205 24.3336 93.5498 24.5696C93.903 24.7971 94.189 25.1173 94.4077 25.5302C94.6263 25.9431 94.7357 26.4781 94.7357 27.1354C94.7357 27.7926 94.6263 28.3277 94.4077 28.7406C94.189 29.1451 93.9072 29.4653 93.5624 29.7012C93.2176 29.9371 92.8307 30.0972 92.4018 30.1815C91.9813 30.2657 91.565 30.3079 91.1528 30.3079C91.0435 30.3079 90.9384 30.3079 90.8375 30.3079C90.7449 30.2995 90.6566 30.291 90.5725 30.2826V33.2023C90.4127 33.2276 90.2571 33.2444 90.1058 33.2529C89.9544 33.2613 89.8072 33.2655 89.6642 33.2655C89.5296 33.2655 89.3825 33.2613 89.2227 33.2529C89.0629 33.2444 88.8989 33.2276 88.7307 33.2023V24.0766ZM90.5725 28.7532C90.6735 28.7701 90.766 28.7785 90.8501 28.7785C90.9426 28.7785 91.0519 28.7785 91.1781 28.7785C91.3883 28.7785 91.5944 28.7532 91.7962 28.7027C91.9981 28.6437 92.1747 28.551 92.3261 28.4246C92.4859 28.2982 92.6121 28.1339 92.7046 27.9317C92.7971 27.721 92.8433 27.464 92.8433 27.1607C92.8433 26.8489 92.7971 26.5877 92.7046 26.377C92.6121 26.1579 92.4859 25.9852 92.3261 25.8588C92.1747 25.724 91.9981 25.6313 91.7962 25.5807C91.5944 25.5218 91.3883 25.4923 91.1781 25.4923C91.0856 25.4923 90.9973 25.4965 90.9132 25.5049C90.8375 25.5049 90.7239 25.5133 90.5725 25.5302V28.7532Z"
        fill="#4447E2" />
    <path
        d="M97.7383 28.9934C97.4523 28.8838 97.1958 28.7659 96.9687 28.6395C96.7416 28.5047 96.5482 28.3488 96.3884 28.1718C96.2286 27.9864 96.1025 27.7674 96.0099 27.5146C95.9258 27.2618 95.8838 26.9584 95.8838 26.6045C95.8838 26.1748 95.9553 25.7956 96.0983 25.467C96.2496 25.1384 96.4599 24.8645 96.729 24.6454C96.9982 24.4179 97.322 24.2494 97.7004 24.1398C98.0789 24.0219 98.5036 23.9629 98.9746 23.9629C99.4035 23.9629 99.803 24.0008 100.173 24.0766C100.552 24.1525 100.947 24.262 101.359 24.4053C101.308 24.894 101.174 25.3743 100.955 25.8462C100.829 25.7956 100.699 25.745 100.564 25.6945C100.438 25.6439 100.299 25.6018 100.148 25.5681C100.005 25.5344 99.8409 25.5091 99.6558 25.4923C99.4708 25.467 99.2606 25.4543 99.0251 25.4543C98.8821 25.4543 98.7349 25.467 98.5835 25.4923C98.4405 25.5175 98.3102 25.5639 98.1924 25.6313C98.0747 25.6987 97.978 25.7998 97.9023 25.9346C97.8266 26.061 97.7887 26.2296 97.7887 26.4402C97.7887 26.6087 97.8182 26.752 97.877 26.87C97.9359 26.9795 98.0158 27.0764 98.1167 27.1607C98.2177 27.2365 98.3312 27.3039 98.4574 27.3629C98.5835 27.4135 98.7097 27.464 98.8358 27.5146L99.5928 27.8053C99.9124 27.9317 100.203 28.0623 100.463 28.1971C100.724 28.3319 100.943 28.5004 101.119 28.7027C101.304 28.8965 101.447 29.1366 101.548 29.4231C101.649 29.7012 101.7 30.0467 101.7 30.4596C101.7 30.8893 101.62 31.2811 101.46 31.635C101.308 31.9889 101.086 32.2923 100.791 32.5451C100.497 32.7978 100.131 32.9959 99.6937 33.1391C99.2648 33.2824 98.7685 33.354 98.2051 33.354C97.9275 33.354 97.6794 33.3456 97.4607 33.3287C97.2421 33.3119 97.0318 33.2824 96.83 33.2402C96.6365 33.2065 96.4431 33.1602 96.2496 33.1012C96.0562 33.0422 95.8544 32.9706 95.6441 32.8863C95.6693 32.642 95.7156 32.3892 95.7829 32.128C95.8501 31.8583 95.93 31.5887 96.0226 31.319C96.3758 31.4623 96.708 31.5718 97.0192 31.6477C97.3304 31.7151 97.6626 31.7488 98.0158 31.7488C98.5457 31.7488 98.962 31.6519 99.2648 31.4581C99.5675 31.2558 99.7189 30.9525 99.7189 30.548C99.7189 30.3458 99.6811 30.1773 99.6054 30.0425C99.5381 29.9076 99.4456 29.7939 99.3278 29.7012C99.2185 29.6085 99.0923 29.5327 98.9494 29.4737C98.8064 29.4063 98.6592 29.3431 98.5078 29.2841L97.7383 28.9934Z"
        fill="#4447E2" />
    <path
        d="M103.047 24.1146C103.375 24.064 103.699 24.0387 104.018 24.0387C104.346 24.0387 104.674 24.064 105.002 24.1146L104.876 30.2952C104.582 30.3458 104.3 30.3711 104.031 30.3711C103.745 30.3711 103.459 30.3458 103.173 30.2952L103.047 24.1146ZM103.097 33.2023C103.047 32.8905 103.022 32.583 103.022 32.2796C103.022 31.9763 103.047 31.6645 103.097 31.3443C103.409 31.2938 103.716 31.2685 104.018 31.2685C104.321 31.2685 104.632 31.2938 104.952 31.3443C105.002 31.6645 105.028 31.9721 105.028 32.267C105.028 32.5788 105.002 32.8905 104.952 33.2023C104.632 33.2529 104.325 33.2781 104.031 33.2781C103.72 33.2781 103.409 33.2529 103.097 33.2023Z"
        fill="#4447E2" />
    <path
        d="M91.4032 98.6321C91.4032 98.6321 91.501 99.4683 91.4288 100.31C91.3334 101.447 90.1981 101.412 90.1981 101.412H1.72323C1.72323 101.412 0.654458 101.412 0.413695 101.114C-0.0558554 100.529 0.232811 98.5907 0.232811 98.5907C0.175821 99.0168 0.682951 99.544 1.77072 99.5887H89.8781C90.5756 99.5887 91.3747 99.0959 91.3995 98.6321H91.4032Z"
        fill="#4447E2" />
    <path
        d="M91.3496 98.4067C91.3913 98.4799 91.407 98.5565 91.4 98.6322C91.3752 99.096 90.5761 99.5884 89.8782 99.5884H1.77123C0.68346 99.5441 0.17633 99.017 0.23332 98.5908C0.242818 98.5275 0.265117 98.4642 0.299807 98.4067C0.563283 97.9681 9.13784 86.0326 9.13784 86.0326C10.2091 84.9552 12.7716 84.8476 13.5864 84.8476H78.0597C78.8716 84.8476 81.6183 84.8952 82.5058 86.0326C82.5058 86.0326 91.0613 97.8924 91.3496 98.4067Z"
        fill="#676EEF" />
    <path
        d="M79.1761 90.2101C79.2103 92.4973 64.3677 97.8037 46.1023 97.8037C27.834 97.8037 13.1681 92.4973 13.0286 90.2101C12.9711 89.2601 13.6976 88.3552 15.0674 87.5161L15.0988 87.5257C14.6424 89.1712 14.3889 90.0864 14.3889 90.0864C14.3889 90.0864 22.8998 96.5898 45.9594 96.5898C69.019 96.5898 77.2541 90.0864 77.2541 90.0864C77.2541 90.0864 76.972 89.0793 76.4653 87.2741L76.5508 87.2526C78.2246 88.1612 79.1604 89.1621 79.1761 90.2101Z"
        fill="#C7E7F4" />
    <path
        d="M58.5232 24.0929C58.5232 24.0929 52.8056 25.3573 45.928 25.491C38.7043 25.6308 32.9838 24.512 32.9838 24.512L32.8128 24.4616C31.528 28.9413 30.1487 33.7921 28.7471 38.758L28.7979 38.7737C28.7979 38.7737 35.6346 40.5913 45.6839 40.7312C56.4274 40.8806 62.7091 38.7737 62.7091 38.7737L62.7723 38.7547C61.3236 33.656 59.8993 28.6711 58.5802 24.0772L58.5232 24.0929Z"
        fill="url(#paint0_linear_640_24470)" />
    <path
        d="M67.0342 54.1531C67.0342 54.1531 57.6829 56.3899 45.5444 56.3899C33.4026 56.3899 24.4695 54.4328 24.4695 54.4328L24.3423 54.398C22.3514 61.4823 20.4612 68.2559 18.8696 73.962L19.0282 74.0058C19.0282 74.0058 27.9612 77.3643 44.5677 77.3643C62.0112 77.3643 72.476 73.4468 72.476 73.4468L72.5772 73.4187C70.9823 67.7569 69.1016 61.088 67.1321 54.1246L67.0342 54.1531Z"
        fill="url(#paint1_linear_640_24470)" />
    <path
        d="M45.9629 0.324055C42.059 0.543344 39.8975 0.784149 39.8975 0.784149C39.5742 0.923584 36.6239 11.1483 32.813 24.46L32.984 24.5104C32.984 24.5104 38.7045 25.6292 45.9282 25.4894C52.8058 25.3557 58.5234 24.0913 58.5234 24.0913L58.5804 24.0756C54.7716 10.821 51.9307 0.993507 51.652 0.784149C51.652 0.784149 49.0759 0.302956 46.7591 0.302956C46.4886 0.302956 46.2218 0.309574 45.9629 0.324055Z"
        fill="url(#paint2_linear_640_24470)" />
    <path
        d="M62.7091 38.7721C62.7091 38.7721 56.4274 40.8789 45.6839 40.7296C35.6346 40.5897 28.7978 38.7721 28.7978 38.7721L28.7471 38.7564C27.2789 43.9415 25.7856 49.2512 24.3423 54.3983L24.4695 54.4331C24.4695 54.4331 33.4025 56.3901 45.5443 56.3901C57.6828 56.3901 67.0342 54.1534 67.0342 54.1534L67.132 54.1248C65.7023 49.0667 64.2243 43.8526 62.7723 38.7531L62.7091 38.7721Z"
        fill="url(#paint3_linear_640_24470)" />
    <path
        d="M72.4753 73.4467C72.4753 73.4467 62.0106 77.3642 44.567 77.3642C27.9605 77.3642 19.0275 74.0057 19.0275 74.0057L18.8689 73.9619C17.2009 79.9534 15.8625 84.7666 15.0985 87.5243C14.6417 89.1698 14.3882 90.085 14.3882 90.085C14.3882 90.085 22.8991 96.5884 45.9591 96.5884C69.0187 96.5884 77.2534 90.085 77.2534 90.085C77.2534 90.085 76.9713 89.0779 76.4642 87.2731C75.6585 84.3951 74.2787 79.483 72.5765 73.4186L72.4753 73.4467Z"
        fill="url(#paint4_linear_640_24470)" />
    <path
        d="M51.6515 0.78471C51.6515 1.2175 49.0196 1.56836 45.7745 1.56836C42.5285 1.56836 39.8975 1.2175 39.8975 0.78471C39.8975 0.351924 42.5285 0.000647426 45.7745 0.000647426C49.0196 0.000647426 51.6515 0.351924 51.6515 0.78471Z"
        fill="#889AF5" />
    <path
        d="M39.7124 63.724C39.7124 62.3808 38.6258 61.2921 37.2858 61.2921C35.945 61.2921 34.8584 62.3808 34.8584 63.724C34.8584 65.0666 35.945 66.1553 37.2858 66.1553C38.6258 66.1553 39.7124 65.0666 39.7124 63.724Z"
        fill="#3BC3FC" />
    <path
        d="M56.9231 63.724C56.9231 62.3808 55.8357 61.2921 54.4957 61.2921C53.1557 61.2921 52.0684 62.3808 52.0684 63.724C52.0684 65.0666 53.1557 66.1553 54.4957 66.1553C55.8357 66.1553 56.9231 65.0666 56.9231 63.724Z"
        fill="#3BC3FC" />
    <path
        d="M37.2715 71.0186C37.2715 68.333 35.0981 66.1555 32.4175 66.1555C29.7369 66.1555 27.5635 68.333 27.5635 71.0186C27.5635 73.7043 29.7369 75.8818 32.4175 75.8818C35.0981 75.8818 37.2715 73.7043 37.2715 71.0186Z"
        fill="#BBDEFF" />
    <path
        d="M64.0197 71.0186C64.0197 68.333 61.8463 66.1555 59.1657 66.1555C56.485 66.1555 54.311 68.333 54.311 71.0186C54.311 73.7043 56.485 75.8818 59.1657 75.8818C61.8463 75.8818 64.0197 73.7043 64.0197 71.0186Z"
        fill="#BBDEFF" />
    <path
        d="M36.9894 58.316C36.7531 57.5137 35.556 57.6582 34.8131 58.1159C34.0048 58.6133 33.3841 59.6587 33.7502 60.0532C34.2139 60.5532 37.3145 59.4201 36.9894 58.316Z"
        fill="#3BC3FC" />
    <path
        d="M54.3349 58.2174C54.5711 57.415 55.7683 57.5596 56.5112 58.0173C57.3196 58.5147 57.9402 59.5601 57.5747 59.9546C57.1104 60.4546 54.0097 59.3208 54.3349 58.2174Z"
        fill="#3BC3FC" />
    <path
        d="M46.7097 66.1682C46.7097 66.8472 46.3103 67.3975 45.8172 67.3975C45.3246 67.3975 44.9248 66.8472 44.9248 66.1682C44.9248 65.4888 45.3246 64.9385 45.8172 64.9385C46.3103 64.9385 46.7097 65.4888 46.7097 66.1682Z"
        fill="#3BC3FC" />
    <path d="M84.4278 37.4957C84.4278 37.4957 85.4751 52.4459 73.4336 55.3306" stroke="#4447E2"
        stroke-width="2.66667" stroke-miterlimit="10" stroke-linecap="round"
        stroke-linejoin="round" />

</svg>
