<svg width="104" height="104" viewBox="0 0 104 104" fill="none" xmlns="http://www.w3.org/2000/svg">
<rect x="0.5" y="0.5" width="102.964" height="102.96" rx="9.5" fill="#F3F4FD" stroke="#4447E2" stroke-linecap="round" stroke-dasharray="8 8"/>
<path d="M61.7177 40.0835H58.5327C57.5902 40.0835 56.8968 40.4735 56.5827 41.1668C56.4093 41.481 56.3335 41.8493 56.3335 42.2827V45.4677C56.3335 46.8435 57.1568 47.6668 58.5327 47.6668H61.7177C62.151 47.6668 62.5193 47.591 62.8335 47.4177C63.5268 47.1035 63.9168 46.4102 63.9168 45.4677V42.2827C63.9168 40.9068 63.0935 40.0835 61.7177 40.0835ZM62.736 44.341C62.6277 44.4493 62.4652 44.5252 62.2918 44.536H60.7643V45.0885L60.7752 46.0418C60.7643 46.226 60.6993 46.3777 60.5693 46.5077C60.461 46.616 60.2985 46.6918 60.1252 46.6918C59.7677 46.6918 59.4752 46.3993 59.4752 46.0418V44.5252L57.9585 44.536C57.601 44.536 57.3085 44.2327 57.3085 43.8752C57.3085 43.5177 57.601 43.2252 57.9585 43.2252L58.9118 43.236H59.4752V41.7193C59.4752 41.3618 59.7677 41.0585 60.1252 41.0585C60.4827 41.0585 60.7752 41.3618 60.7752 41.7193L60.7643 42.4885V43.2252H62.2918C62.6493 43.2252 62.9418 43.5177 62.9418 43.8752C62.931 44.0593 62.8552 44.211 62.736 44.341Z" fill="#4447E2"/>
<path d="M48.75 50.245C50.1739 50.245 51.3283 49.0907 51.3283 47.6667C51.3283 46.2427 50.1739 45.0884 48.75 45.0884C47.326 45.0884 46.1716 46.2427 46.1716 47.6667C46.1716 49.0907 47.326 50.245 48.75 50.245Z" fill="#4447E2"/>
<path d="M61.7173 47.6665H61.2082V52.6607L61.0673 52.5415C60.2223 51.8157 58.8573 51.8157 58.0123 52.5415L53.5057 56.409C52.6607 57.1348 51.2957 57.1348 50.4507 56.409L50.0823 56.1057C49.3132 55.434 48.089 55.369 47.2223 55.954L43.1707 58.6732C42.9323 58.0665 42.7915 57.3623 42.7915 56.539V47.4607C42.7915 44.4057 44.4057 42.7915 47.4607 42.7915H56.3332V42.2823C56.3332 41.849 56.409 41.4807 56.5823 41.1665H47.4607C43.5173 41.1665 41.1665 43.5173 41.1665 47.4607V56.539C41.1665 57.7198 41.3723 58.749 41.7732 59.6157C42.7048 61.674 44.6982 62.8332 47.4607 62.8332H56.539C60.4823 62.8332 62.8332 60.4823 62.8332 56.539V47.4173C62.519 47.5907 62.1507 47.6665 61.7173 47.6665Z" fill="#4447E2"/>
</svg>
