<svg width="21" height="14" viewBox="0 0 21 14" fill="none" xmlns="http://www.w3.org/2000/svg">
<path d="M7.33405 0.256901C7.50561 0.428087 7.6026 0.660109 7.60391 0.90246C7.60522 1.14481 7.51075 1.37787 7.34105 1.5509L3.07305 5.8329H19.3361C19.5785 5.8329 19.8109 5.9292 19.9823 6.10061C20.1538 6.27201 20.2501 6.50449 20.2501 6.7469C20.2501 6.98931 20.1538 7.22179 19.9823 7.3932C19.8109 7.5646 19.5785 7.6609 19.3361 7.6609H3.07305L7.34805 11.9469C7.5163 12.1207 7.60979 12.3534 7.60849 12.5953C7.60718 12.8372 7.51118 13.069 7.34105 13.2409C7.25609 13.325 7.1554 13.3914 7.04474 13.4366C6.93408 13.4817 6.81561 13.5046 6.6961 13.504C6.57659 13.5033 6.45838 13.4791 6.34822 13.4328C6.23805 13.3865 6.13809 13.3189 6.05405 13.2339L0.260053 7.3939C0.180916 7.30931 0.116674 7.21194 0.0700526 7.1059C0.0225648 6.99469 -0.00127353 6.87482 5.2428e-05 6.7539C-0.000127047 6.51481 0.0931824 6.28513 0.260053 6.1139L6.05405 0.277901C6.13636 0.191855 6.23492 0.122997 6.34402 0.0753145C6.45313 0.0276323 6.57061 0.00207435 6.68967 0.000121111C6.80872 -0.00183213 6.92698 0.0198578 7.03759 0.0639353C7.1482 0.108013 7.24897 0.173602 7.33405 0.256901Z" fill="#4447E2"/>
</svg>
