<svg width="20" height="20" viewBox="0 0 20 20" fill="none" xmlns="http://www.w3.org/2000/svg">
<path d="M9.20841 12.4582L7.66675 13.9998C7.34175 14.3248 6.82508 14.3248 6.49175 14.0082C6.40008 13.9165 6.30841 13.8332 6.21675 13.7415C5.35841 12.8748 4.58341 11.9665 3.89175 11.0165C3.20841 10.0665 2.65841 9.1165 2.25841 8.17484C1.86675 7.22484 1.66675 6.3165 1.66675 5.44984C1.66675 4.88317 1.76675 4.3415 1.96675 3.8415C2.16675 3.33317 2.48341 2.8665 2.92508 2.44984C3.45841 1.92484 4.04175 1.6665 4.65841 1.6665C4.89175 1.6665 5.12508 1.7165 5.33341 1.8165C5.55008 1.9165 5.74175 2.0665 5.89175 2.28317L7.82508 5.00817C7.97508 5.2165 8.08341 5.40817 8.15841 5.5915C8.23341 5.7665 8.27508 5.9415 8.27508 6.09984C8.27508 6.29984 8.21675 6.49984 8.10008 6.6915C7.99175 6.88317 7.83341 7.08317 7.63341 7.28317L7.00008 7.9415C6.90841 8.03317 6.86675 8.1415 6.86675 8.27484C6.86675 8.3415 6.87508 8.39984 6.89175 8.4665C6.91675 8.53317 6.94175 8.58317 6.95841 8.63317C7.10841 8.90817 7.36675 9.2665 7.73341 9.69984C8.10841 10.1332 8.50841 10.5748 8.94175 11.0165C9.02508 11.0998 9.11675 11.1832 9.20008 11.2665C9.53341 11.5915 9.54175 12.1248 9.20841 12.4582Z" fill="#4447E2"/>
<path d="M18.3083 15.2752C18.3083 15.5085 18.2667 15.7502 18.1833 15.9835C18.1583 16.0502 18.1333 16.1169 18.1 16.1835C17.9583 16.4835 17.775 16.7669 17.5333 17.0335C17.125 17.4835 16.675 17.8085 16.1667 18.0169C16.1583 18.0169 16.15 18.0252 16.1417 18.0252C15.65 18.2252 15.1167 18.3335 14.5417 18.3335C13.6917 18.3335 12.7833 18.1335 11.825 17.7252C10.8667 17.3169 9.90833 16.7669 8.95833 16.0752C8.63333 15.8335 8.30833 15.5919 8 15.3335L10.725 12.6085C10.9583 12.7835 11.1667 12.9169 11.3417 13.0085C11.3833 13.0252 11.4333 13.0502 11.4917 13.0752C11.5583 13.1002 11.625 13.1085 11.7 13.1085C11.8417 13.1085 11.95 13.0585 12.0417 12.9669L12.675 12.3419C12.8833 12.1335 13.0833 11.9752 13.275 11.8752C13.4667 11.7585 13.6583 11.7002 13.8667 11.7002C14.025 11.7002 14.1917 11.7335 14.375 11.8085C14.5583 11.8835 14.75 11.9919 14.9583 12.1335L17.7167 14.0919C17.9333 14.2419 18.0833 14.4169 18.175 14.6252C18.2583 14.8335 18.3083 15.0419 18.3083 15.2752Z" fill="#4447E2"/>
</svg>
