<svg width="20" height="20" viewBox="0 0 20 20" fill="none" xmlns="http://www.w3.org/2000/svg">
<path fill-rule="evenodd" clip-rule="evenodd" d="M17.0707 2.92929C20.9764 6.83502 20.9764 13.165 17.0707 17.0707C13.1691 20.9764 6.83502 20.9764 2.92929 17.0707C-0.976431 13.165 -0.976431 6.83502 2.92929 2.92929C6.83502 -0.976431 13.165 -0.976431 17.0707 2.92929ZM9.37063 10.0138C8.98005 10.404 8.34712 10.4039 7.95671 10.0135L7.12187 9.17864C6.73135 8.78812 6.09819 8.78812 5.70766 9.17864L5.3792 9.50711C4.98867 9.89763 4.98867 10.5308 5.3792 10.9213L6.92084 12.463L7.95724 13.4994C8.34744 13.8896 8.97997 13.8899 9.37062 13.5002L10.4103 12.463L14.6251 8.24813C15.0156 7.8576 15.0156 7.22444 14.6251 6.83391L14.2964 6.50515C13.906 6.11474 13.273 6.11461 12.8824 6.50486L9.37063 10.0138Z" fill="white"/>
</svg>
