<svg width="38" height="38" viewBox="0 0 38 38" fill="none" xmlns="http://www.w3.org/2000/svg">
<path d="M20.1875 25.2068H21.2167C22.2458 25.2068 23.1008 24.2885 23.1008 23.1802C23.1008 21.8027 22.61 21.5335 21.8025 21.2485C21.0199 20.9773 20.2033 21.5585 20.2033 22.3868V25.191C20.2033 25.1997 20.1962 25.2068 20.1875 25.2068Z" fill="white"/>
<path d="M18.9524 3.00833C10.2124 3.03999 3.13494 10.1492 3.16661 18.8892C3.19828 27.6292 10.3074 34.7067 19.0474 34.675C27.7874 34.6433 34.8649 27.5342 34.8333 18.7942C34.8016 10.0542 27.6924 2.99249 18.9524 3.00833ZM22.5783 19C23.8133 19.4275 25.4758 20.3458 25.4758 23.18C25.4758 25.6183 23.5599 27.5817 21.2166 27.5817H21.1058C20.5986 27.5817 20.1874 27.9928 20.1874 28.5V28.5C20.1874 29.1492 19.6491 29.6875 18.9999 29.6875C18.3508 29.6875 17.8124 29.1492 17.8124 28.5V28.1517C17.8124 27.8369 17.5572 27.5817 17.2424 27.5817V27.5817C14.6458 27.5817 12.5399 25.3967 12.5399 22.705C12.5399 22.0558 13.0783 21.5175 13.7274 21.5175C14.3766 21.5175 14.9149 22.0558 14.9149 22.705C14.9149 24.0825 15.9599 25.2067 17.2424 25.2067V25.2067C17.5572 25.2067 17.8124 24.9515 17.8124 24.6367V22.0668C17.8124 20.7403 16.9789 19.5569 15.7298 19.1102L15.4216 19C14.1866 18.5725 12.5241 17.6542 12.5241 14.82C12.5241 12.3817 14.4399 10.4183 16.7833 10.4183H16.8941C17.4013 10.4183 17.8124 10.0072 17.8124 9.49999V9.49999C17.8124 8.85083 18.3508 8.31249 18.9999 8.31249C19.6491 8.31249 20.1874 8.85083 20.1874 9.49999V9.84833C20.1874 10.1631 20.4426 10.4183 20.7574 10.4183V10.4183C23.3541 10.4183 25.4599 12.6033 25.4599 15.295C25.4599 15.9442 24.9216 16.4825 24.2724 16.4825C23.6233 16.4825 23.0849 15.9442 23.0849 15.295C23.0849 13.9175 22.0399 12.7933 20.7574 12.7933V12.7933C20.4426 12.7933 20.1874 13.0485 20.1874 13.3633V15.9332C20.1874 17.2597 21.021 18.4431 22.27 18.8898L22.5783 19Z" fill="white"/>
<path d="M14.915 14.836C14.915 16.2135 15.4059 16.4826 16.2134 16.7676C16.996 17.0388 17.8125 16.4576 17.8125 15.6293V13.8226C17.8125 13.2542 17.3518 12.7935 16.7834 12.7935C15.7542 12.7935 14.915 13.7118 14.915 14.836Z" fill="white"/>
</svg>
