<svg width="16" height="16" viewBox="0 0 16 16" fill="none" xmlns="http://www.w3.org/2000/svg">
<path d="M14.1666 6.09995C12.6266 3.67995 10.3733 2.28662 7.99992 2.28662C6.81325 2.28662 5.65992 2.63329 4.60658 3.27995C3.55325 3.93329 2.60659 4.88662 1.83325 6.09995C1.16659 7.14662 1.16659 8.84662 1.83325 9.89329C3.37325 12.32 5.62659 13.7066 7.99992 13.7066C9.18658 13.7066 10.3399 13.36 11.3933 12.7133C12.4466 12.06 13.3933 11.1066 14.1666 9.89329C14.8333 8.85329 14.8333 7.14662 14.1666 6.09995ZM7.99992 10.6933C6.50658 10.6933 5.30659 9.48662 5.30659 7.99995C5.30659 6.51329 6.50658 5.30662 7.99992 5.30662C9.49325 5.30662 10.6933 6.51329 10.6933 7.99995C10.6933 9.48662 9.49325 10.6933 7.99992 10.6933Z" fill="#A7C2D8"/>
<path d="M7.99985 6.09326C6.95319 6.09326 6.09985 6.94659 6.09985 7.99993C6.09985 9.04659 6.95319 9.89993 7.99985 9.89993C9.04652 9.89993 9.90652 9.04659 9.90652 7.99993C9.90652 6.95326 9.04652 6.09326 7.99985 6.09326Z" fill="#A7C2D8"/>
</svg>
