<svg width="20" height="20" viewBox="0 0 20 20" fill="none" xmlns="http://www.w3.org/2000/svg">
<path d="M2.15004 15.8417L2.13337 15.8583C1.90837 15.3667 1.76671 14.8083 1.70837 14.1917C1.76671 14.8 1.92504 15.35 2.15004 15.8417Z" fill="#4D50FF"/>
<path d="M7.50006 8.65002C8.59542 8.65002 9.48339 7.76205 9.48339 6.66668C9.48339 5.57132 8.59542 4.68335 7.50006 4.68335C6.40469 4.68335 5.51672 5.57132 5.51672 6.66668C5.51672 7.76205 6.40469 8.65002 7.50006 8.65002Z" fill="#4D50FF"/>
<path d="M13.4916 1.66675H6.50829C3.47496 1.66675 1.66663 3.47508 1.66663 6.50841V13.4917C1.66663 14.4001 1.82496 15.1917 2.13329 15.8584C2.84996 17.4417 4.38329 18.3334 6.50829 18.3334H13.4916C16.525 18.3334 18.3333 16.5251 18.3333 13.4917V11.5834V6.50841C18.3333 3.47508 16.525 1.66675 13.4916 1.66675ZM16.975 10.4167C16.325 9.85842 15.275 9.85842 14.625 10.4167L11.1583 13.3917C10.5083 13.9501 9.45829 13.9501 8.80829 13.3917L8.52496 13.1584C7.93329 12.6417 6.99163 12.5917 6.32496 13.0417L3.20829 15.1334C3.02496 14.6667 2.91663 14.1251 2.91663 13.4917V6.50841C2.91663 4.15841 4.15829 2.91675 6.50829 2.91675H13.4916C15.8416 2.91675 17.0833 4.15841 17.0833 6.50841V10.5084L16.975 10.4167Z" fill="#4D50FF"/>
</svg>
