<svg width="26" height="26" viewBox="0 0 26 26" fill="none" xmlns="http://www.w3.org/2000/svg">
<path d="M2.79511 20.5942L2.77345 20.6159C2.48095 19.9767 2.29678 19.2509 2.22095 18.4492C2.29678 19.2401 2.50261 19.9551 2.79511 20.5942Z" fill="#4D50FF"/>
<path d="M9.74996 11.245C11.1739 11.245 12.3283 10.0907 12.3283 8.66671C12.3283 7.24274 11.1739 6.08838 9.74996 6.08838C8.32599 6.08838 7.17163 7.24274 7.17163 8.66671C7.17163 10.0907 8.32599 11.245 9.74996 11.245Z" fill="#4D50FF"/>
<path d="M17.5392 2.1665H8.46092C4.51758 2.1665 2.16675 4.51734 2.16675 8.46067V17.539C2.16675 18.7198 2.37258 19.749 2.77341 20.6157C3.70508 22.674 5.69841 23.8332 8.46092 23.8332H17.5392C21.4826 23.8332 23.8334 21.4823 23.8334 17.539V15.0582V8.46067C23.8334 4.51734 21.4826 2.1665 17.5392 2.1665ZM22.0676 13.5415C21.2226 12.8157 19.8576 12.8157 19.0126 13.5415L14.5059 17.409C13.6609 18.1348 12.2959 18.1348 11.4509 17.409L11.0826 17.1057C10.3134 16.434 9.08925 16.369 8.22258 16.954L4.17091 19.6732C3.93258 19.0665 3.79175 18.3623 3.79175 17.539V8.46067C3.79175 5.40567 5.40591 3.7915 8.46092 3.7915H17.5392C20.5942 3.7915 22.2084 5.40567 22.2084 8.46067V13.6607L22.0676 13.5415Z" fill="#4D50FF"/>
</svg>
