<svg width="38" height="38" viewBox="0 0 38 38" fill="none" xmlns="http://www.w3.org/2000/svg">
<path d="M34.3108 11.0041C33.2975 7.56822 30.4317 4.70239 26.9958 3.68906C24.3833 2.92906 22.5783 2.99239 21.3275 3.92656C19.8233 5.05072 19.6492 7.07739 19.6492 8.51822V12.4607C19.6492 16.3557 21.4225 18.3349 24.9058 18.3349H29.45C30.875 18.3349 32.9175 18.1607 34.0417 16.6566C35.0075 15.4216 35.0867 13.6166 34.3108 11.0041Z" fill="white"/>
<path d="M29.9408 21.1538C29.5291 20.6788 28.9275 20.4096 28.31 20.4096H22.6416C19.855 20.4096 17.5908 18.1455 17.5908 15.3588V9.69048C17.5908 9.07298 17.3216 8.47132 16.8466 8.05965C16.3875 7.64798 15.7541 7.45798 15.1525 7.53715C11.4316 8.01215 8.01163 10.0546 5.77913 13.1263C3.53079 16.2138 2.70746 19.9821 3.41996 23.7505C4.44913 29.1971 8.8033 33.5513 14.2658 34.5805C15.1366 34.7547 16.0075 34.8338 16.8783 34.8338C19.7441 34.8338 22.515 33.9471 24.8741 32.2213C27.9458 29.9888 29.9883 26.5688 30.4633 22.848C30.5425 22.2305 30.3525 21.613 29.9408 21.1538Z" fill="white"/>
</svg>
