<svg width="90" height="119" viewBox="0 0 90 119" fill="none" xmlns="http://www.w3.org/2000/svg">
<path d="M0.863281 101.72C3.02699 101.168 5.17722 100.576 7.26895 99.8015C9.27302 99.2766 11.1988 98.4867 12.9958 97.4518C15.5586 96.6676 18.04 95.6367 20.4056 94.3735C20.9093 94.1269 21.3528 93.7718 21.7043 93.3329C22.0558 92.8941 22.3067 92.383 22.4392 91.8357C22.7541 90.818 23.0041 89.7843 23.2542 88.75C23.524 87.6348 23.7939 86.5185 24.1456 85.4211C24.3559 84.4344 25.1039 84.4344 25.9688 84.4344C26.2562 84.4344 26.5436 84.5382 26.8319 84.642C27.411 84.8514 27.9937 85.062 28.5868 84.4344C29.2746 82.1862 29.4213 79.8061 29.0149 77.4897C28.6085 75.1739 27.6606 72.9877 26.2493 71.1118C26.234 71.0091 26.23 70.9053 26.237 70.802C26.2397 70.7642 26.2437 70.7263 26.2493 70.6884C26.0533 69.3604 25.5663 68.0921 24.8235 66.9763C24.6746 66.4973 24.5163 66.0235 24.3583 65.5502C24.02 64.5377 23.6833 63.5292 23.4444 62.488C23.3874 62.0394 23.2027 61.6166 22.9124 61.2702C22.6222 60.9242 22.2387 60.6701 21.8081 60.5382C21.2823 60.3592 20.8193 60.0305 20.475 59.5928C20.1307 59.1551 19.9199 58.6262 19.868 58.0709C19.4936 56.0688 18.7822 54.1459 17.7642 52.3848C17.0864 50.3168 16.4786 48.2258 15.8943 46.1107C15.5251 44.6353 15.4694 43.0979 15.7306 41.5995C15.7608 40.8968 15.9996 40.2187 16.4161 39.6537C16.8327 39.088 17.408 38.6612 18.0681 38.4272C18.5528 38.2843 18.9662 37.9631 19.2261 37.5277C19.4859 37.0929 19.5733 36.5748 19.4706 36.0775C19.4224 33.8609 19.1403 31.6557 18.6291 29.4988C18.3216 26.9644 18.2824 24.4047 18.5122 21.8623C18.578 21.7114 18.6734 21.5755 18.7927 21.4625L19.0265 21.2978C18.8731 19.8442 19.0811 18.3745 19.6318 17.0212C20.1826 15.668 21.0589 14.473 22.1821 13.5443C23.3777 12.4584 24.3954 11.1894 25.1975 9.78454C25.6197 8.98142 26.2496 8.30795 27.0207 7.83411V7.64652C30.1491 4.82873 33.9062 2.80888 37.9745 1.75795C42.0429 0.707009 46.3031 0.65538 50.3955 1.60765C54.6396 2.29546 58.7691 3.5684 62.6673 5.39091C67.1603 7.67521 70.9079 11.2055 73.4664 15.5647C74.6253 17.9075 75.2785 20.4695 75.3832 23.0836C75.4668 23.8569 75.5982 24.6296 75.6662 25.4023C75.6933 25.7104 75.7104 26.0184 75.7104 26.3265C75.6971 26.5141 75.6971 26.7028 75.7104 26.8904C75.5 30.462 75.2897 34.0571 75.0559 37.6287C75.0092 38.5448 75.1961 39.1087 76.2012 39.3909C76.7069 39.5326 77.1501 39.8418 77.4597 40.268C77.7692 40.6943 77.927 41.2129 77.9076 41.7406V44.0903C77.973 44.1259 78.0443 44.15 78.118 44.1609C78.2304 44.2699 78.3112 44.4081 78.3518 44.5601V45.7115C78.0439 47.5563 77.5826 49.372 76.9726 51.1394C75.8587 53.6474 74.9443 56.2398 74.2378 58.8929C74.1511 59.2968 73.9347 59.6599 73.6222 59.9278C73.3096 60.1951 72.918 60.3517 72.5081 60.3735C71.1523 60.4206 70.6848 61.2661 70.4043 62.3004C69.2043 66.8363 67.5843 71.2495 65.5657 75.4819C64.0298 76.6453 64.0769 78.2527 64.1238 79.8532C64.1318 80.1279 64.1399 80.4027 64.1399 80.6746C64.1652 81.1313 64.2312 81.4646 64.3125 81.8747C64.3817 82.2241 64.4619 82.6285 64.5372 83.2125C64.7009 84.4814 65.3086 84.7166 66.4072 84.4814C66.9418 84.2772 67.5323 84.2772 68.0669 84.4814C68.6745 84.6461 68.7915 85.1159 68.9083 85.6563C69.0253 86.6321 69.2128 87.5981 69.4693 88.5463C69.5413 88.8097 69.6152 89.0712 69.6888 89.3317C69.878 90.0017 70.0659 90.666 70.2173 91.3423C70.2724 91.659 70.4033 91.9567 70.5989 92.2103C70.7081 92.352 70.8355 92.4782 70.9775 92.5843C71.0897 92.6686 71.211 92.7409 71.3393 92.7994C71.666 93.0622 72.0155 93.279 72.364 93.4981C72.5141 93.5922 72.6641 93.6869 72.8119 93.7861C73.6075 94.8135 74.7297 95.5346 75.9909 95.8306C76.1954 95.8817 76.3821 95.9918 76.5645 96.0991C76.7991 96.2374 77.0267 96.371 77.2765 96.371C77.8879 97.0175 78.7272 97.3967 79.614 97.4283C82.1484 98.7769 84.7913 99.9087 87.5147 100.812C87.9919 101.236 88.5455 101.555 89.1391 101.753C83.5505 106.9 77.0834 111.058 70.0066 114.003C58.0716 118.972 44.9389 120.271 32.2695 117.735C20.522 115.385 9.66222 109.836 0.863281 101.72Z" fill="white"/>
</svg>
