<svg width="36" height="36" viewBox="0 0 36 36" fill="none" xmlns="http://www.w3.org/2000/svg">
<path d="M17.9999 35.5C8.33469 35.5 0.499939 27.6652 0.499939 18C0.499939 8.33475 8.33469 0.5 17.9999 0.5C27.6652 0.5 35.4999 8.33475 35.4999 18C35.4999 27.6652 27.6652 35.5 17.9999 35.5ZM17.9999 23.25C17.0334 23.25 16.2499 24.0335 16.2499 25C16.2499 25.9665 17.0334 26.75 17.9999 26.75C18.9664 26.75 19.7499 25.9665 19.7499 25C19.7499 24.0335 18.9664 23.25 17.9999 23.25ZM17.9999 9.25C17.0334 9.25 16.2499 10.0335 16.2499 11V18C16.2499 18.9665 17.0334 19.75 17.9999 19.75C18.9664 19.75 19.7499 18.9665 19.7499 18V11C19.7499 10.0335 18.9664 9.25 17.9999 9.25Z" fill="#FC5833"/>
</svg>
