<svg width="26" height="32" viewBox="0 0 26 32" fill="none" xmlns="http://www.w3.org/2000/svg">
<path d="M22.0157 22.5991L13 31.6147L3.98434 22.5991C2.20124 20.8159 0.986931 18.5441 0.494982 16.0708C0.00303309 13.5976 0.255535 11.034 1.22056 8.70425C2.18558 6.3745 3.81978 4.38323 5.9165 2.98225C8.01322 1.58127 10.4783 0.833496 13 0.833496C15.5217 0.833496 17.9868 1.58127 20.0835 2.98225C22.1802 4.38323 23.8144 6.3745 24.7795 8.70425C25.7445 11.034 25.997 13.5976 25.505 16.0708C25.0131 18.5441 23.7988 20.8159 22.0157 22.5991ZM13 16.4167C13.7515 16.4167 14.4721 16.1182 15.0035 15.5869C15.5348 15.0555 15.8333 14.3348 15.8333 13.5834C15.8333 12.8319 15.5348 12.1113 15.0035 11.5799C14.4721 11.0486 13.7515 10.7501 13 10.7501C12.2486 10.7501 11.5279 11.0486 10.9965 11.5799C10.4652 12.1113 10.1667 12.8319 10.1667 13.5834C10.1667 14.3348 10.4652 15.0555 10.9965 15.5869C11.5279 16.1182 12.2486 16.4167 13 16.4167Z" fill="#FC5833"/>
</svg>
