<svg width="20" height="20" viewBox="0 0 20 20" fill="none" xmlns="http://www.w3.org/2000/svg">
<path d="M15.625 6.6665V8.4165C15.2583 8.3665 14.8417 8.3415 14.375 8.33317V6.6665C14.375 4.0415 13.6333 2.2915 10 2.2915C6.36667 2.2915 5.625 4.0415 5.625 6.6665V8.33317C5.15833 8.3415 4.74167 8.3665 4.375 8.4165V6.6665C4.375 4.24984 4.95833 1.0415 10 1.0415C15.0417 1.0415 15.625 4.24984 15.625 6.6665Z" fill="#4447E2"/>
<path d="M15.6251 8.41683C15.2584 8.36683 14.8417 8.34183 14.3751 8.3335H5.62508C5.15841 8.34183 4.74175 8.36683 4.37508 8.41683C2.25008 8.67516 1.66675 9.71683 1.66675 12.5002V14.1668C1.66675 17.5002 2.50008 18.3335 5.83342 18.3335H14.1667C17.5001 18.3335 18.3334 17.5002 18.3334 14.1668V12.5002C18.3334 9.71683 17.7501 8.67516 15.6251 8.41683ZM7.25842 13.9252C7.10008 14.0752 6.88341 14.1668 6.66675 14.1668C6.55841 14.1668 6.45008 14.1418 6.35008 14.1002C6.24175 14.0585 6.15841 14.0002 6.07508 13.9252C5.92508 13.7668 5.83342 13.5502 5.83342 13.3335C5.83342 13.2252 5.85841 13.1168 5.90008 13.0168C5.94175 12.9168 6.00008 12.8252 6.07508 12.7418C6.15841 12.6668 6.24175 12.6085 6.35008 12.5668C6.65841 12.4335 7.02508 12.5085 7.25842 12.7418C7.33342 12.8252 7.39175 12.9168 7.43341 13.0168C7.47508 13.1168 7.50008 13.2252 7.50008 13.3335C7.50008 13.5502 7.40841 13.7668 7.25842 13.9252ZM10.7667 13.6502C10.7251 13.7502 10.6667 13.8418 10.5917 13.9252C10.4334 14.0752 10.2167 14.1668 10.0001 14.1668C9.77508 14.1668 9.56675 14.0752 9.40841 13.9252C9.33342 13.8418 9.27508 13.7502 9.23342 13.6502C9.19175 13.5502 9.16675 13.4418 9.16675 13.3335C9.16675 13.1085 9.25842 12.9002 9.40841 12.7418C9.71675 12.4335 10.2751 12.4335 10.5917 12.7418C10.7417 12.9002 10.8334 13.1085 10.8334 13.3335C10.8334 13.4418 10.8084 13.5502 10.7667 13.6502ZM13.9251 13.9252C13.7667 14.0752 13.5501 14.1668 13.3334 14.1668C13.1167 14.1668 12.9001 14.0752 12.7417 13.9252C12.5917 13.7668 12.5001 13.5585 12.5001 13.3335C12.5001 13.1085 12.5917 12.9002 12.7417 12.7418C13.0584 12.4335 13.6167 12.4335 13.9251 12.7418C13.9584 12.7835 13.9917 12.8252 14.0251 12.8752C14.0584 12.9168 14.0834 12.9668 14.1001 13.0168C14.1251 13.0668 14.1417 13.1168 14.1501 13.1668C14.1584 13.2252 14.1667 13.2835 14.1667 13.3335C14.1667 13.5502 14.0751 13.7668 13.9251 13.9252Z" fill="#4447E2"/>
</svg>
