<svg width="19" height="19" viewBox="0 0 19 19" fill="none" xmlns="http://www.w3.org/2000/svg">
<path d="M9.165 18.33C4.10317 18.33 0 14.2268 0 9.165C0 4.10317 4.10317 0 9.165 0C14.2268 0 18.33 4.10317 18.33 9.165C18.33 14.2268 14.2268 18.33 9.165 18.33ZM9.87223 7.16159C9.48168 7.55228 8.84832 7.55228 8.45777 7.16159L7.22145 5.92483C6.86341 5.56667 6.28281 5.56662 5.92471 5.92471V5.92471C5.56662 6.28281 5.56667 6.86341 5.92483 7.22145L7.16159 8.45777C7.55228 8.84832 7.55228 9.48168 7.16159 9.87223L5.92483 11.1086C5.56667 11.4666 5.56662 12.0472 5.92471 12.4053V12.4053C6.28281 12.7634 6.86341 12.7633 7.22145 12.4052L8.45777 11.1684C8.84832 10.7777 9.48168 10.7777 9.87223 11.1684L11.1086 12.4052C11.4666 12.7633 12.0472 12.7634 12.4053 12.4053V12.4053C12.7634 12.0472 12.7633 11.4666 12.4052 11.1086L11.1684 9.87223C10.7777 9.48168 10.7777 8.84832 11.1684 8.45777L12.4052 7.22145C12.7633 6.86341 12.7634 6.28281 12.4053 5.92471V5.92471C12.0472 5.56662 11.4666 5.56667 11.1086 5.92483L9.87223 7.16159Z" fill="#FC5833"/>
<path d="M5.91923 7.21005C5.56335 6.85636 5.56268 6.2808 5.91774 5.92629V5.92629C6.27118 5.57337 6.84357 5.57307 7.19739 5.92561L8.45617 7.17985C8.8476 7.56986 9.48116 7.56849 9.8709 7.17677L11.1102 5.93118C11.4636 5.57602 12.0381 5.57507 12.3926 5.92907V5.92907C12.7466 6.2825 12.7472 6.85591 12.3939 7.21006L11.1466 8.46053C10.758 8.85017 10.7572 9.48063 11.1449 9.87122L12.3971 11.1327C12.7488 11.4871 12.7476 12.0593 12.3942 12.4121V12.4121C12.0391 12.7667 11.4633 12.765 11.1102 12.4084L9.87952 11.1654C9.48673 10.7687 8.84517 10.7704 8.45452 11.1692L7.26338 12.3853C6.90013 12.7562 6.30591 12.765 5.93174 12.4052V12.4052C5.54443 12.0328 5.5447 11.4129 5.93233 11.0408L7.14776 9.87402C7.55281 9.48517 7.55841 8.83914 7.16016 8.44333L5.91923 7.21005Z" fill="white"/>
</svg>
