<svg width="28" height="28" viewBox="0 0 28 28" fill="none" xmlns="http://www.w3.org/2000/svg">
<path d="M18.9584 26.2498C20.086 26.2498 21.0001 25.3358 21.0001 24.2082C21.0001 23.0806 20.086 22.1665 18.9584 22.1665C17.8308 22.1665 16.9167 23.0806 16.9167 24.2082C16.9167 25.3358 17.8308 26.2498 18.9584 26.2498Z" fill="#4447E2"/>
<path d="M9.62492 26.2498C10.7525 26.2498 11.6666 25.3358 11.6666 24.2082C11.6666 23.0806 10.7525 22.1665 9.62492 22.1665C8.49734 22.1665 7.58325 23.0806 7.58325 24.2082C7.58325 25.3358 8.49734 26.2498 9.62492 26.2498Z" fill="#4447E2"/>
<path d="M5.64659 4.59683L5.41325 7.45516C5.36659 8.0035 5.79825 8.4585 6.34659 8.4585H24.2083C24.6983 8.4585 25.1066 8.08516 25.1416 7.59516C25.2933 5.53016 23.7183 3.85016 21.6532 3.85016H8.91255C7.97807 3.85016 7.22285 3.13804 6.60325 2.4385C6.01992 1.82016 5.20325 1.4585 4.36325 1.4585H2.33325C1.85492 1.4585 1.45825 1.85516 1.45825 2.3335C1.45825 2.81183 1.85492 3.2085 2.33325 3.2085H4.36325C4.72492 3.2085 5.06325 3.36016 5.30825 3.61683C5.55325 3.88516 5.66992 4.23516 5.64659 4.59683Z" fill="#4447E2"/>
<path d="M23.9282 10.2085H6.03157C5.54157 10.2085 5.1449 10.5818 5.09823 11.0602L4.67823 16.1352C4.5149 18.1302 6.07823 19.8335 8.07323 19.8335H21.0466C22.7966 19.8335 24.3366 18.3985 24.4649 16.6485L24.8499 11.2002C24.8966 10.6635 24.4766 10.2085 23.9282 10.2085Z" fill="#4447E2"/>
</svg>
