<svg width="24" height="25" viewBox="0 0 24 25" fill="none" xmlns="http://www.w3.org/2000/svg">
<path d="M18.5408 4.67063L13.0408 2.61062C12.4708 2.40063 11.5408 2.40063 10.9708 2.61062L5.47078 4.67063C4.41078 5.07063 3.55078 6.31063 3.55078 7.44063V15.5406C3.55078 16.3506 4.08078 17.4206 4.73078 17.9006L10.2308 22.0106C11.2008 22.7406 12.7908 22.7406 13.7608 22.0106L19.2608 17.9006C19.9108 17.4106 20.4408 16.3506 20.4408 15.5406V7.44063C20.4508 6.31063 19.5908 5.07063 18.5408 4.67063ZM12.7508 13.3706V16.0006C12.7508 16.4106 12.4108 16.7506 12.0008 16.7506C11.5908 16.7506 11.2508 16.4106 11.2508 16.0006V13.3706C10.2408 13.0506 9.50078 12.1106 9.50078 11.0006C9.50078 9.62062 10.6208 8.50063 12.0008 8.50063C13.3808 8.50063 14.5008 9.62062 14.5008 11.0006C14.5008 12.1206 13.7608 13.0506 12.7508 13.3706Z" fill="#4447E2"/>
</svg>
