<svg width="38" height="38" viewBox="0 0 38 38" fill="none" xmlns="http://www.w3.org/2000/svg">
<path d="M14.2501 3.16675C10.1017 3.16675 6.72925 6.53925 6.72925 10.6876C6.72925 14.7004 9.82428 17.9588 13.8884 18.1849C14.0022 18.1912 14.1169 18.1821 14.2308 18.1808C14.2653 18.1804 14.2985 18.1813 14.3298 18.1835C14.3824 18.1873 14.4349 18.1926 14.4876 18.1926C14.5034 18.1926 14.5034 18.1926 14.5192 18.1926C18.5726 18.0501 21.7551 14.7567 21.7709 10.6876C21.7709 6.53925 18.3984 3.16675 14.2501 3.16675Z" fill="white"/>
<path d="M22.2933 22.4041C17.8758 19.4591 10.6716 19.4591 6.22244 22.4041C4.2116 23.7499 3.10327 25.5707 3.10327 27.5182C3.10327 29.4657 4.2116 31.2707 6.2066 32.6007C8.42327 34.0891 11.3366 34.8332 14.2499 34.8332C17.1633 34.8332 20.0766 34.0891 22.2933 32.6007C24.2883 31.2549 25.3966 29.4499 25.3966 27.4866C25.3808 25.5391 24.2883 23.7341 22.2933 22.4041Z" fill="white"/>
<path d="M31.6508 11.6217C31.9042 14.6933 29.7192 17.385 26.695 17.7492C26.6792 17.7492 26.6792 17.7492 26.6633 17.7492H26.6158C26.4353 17.7492 26.2546 17.7875 26.0741 17.7889C25.9825 17.7897 25.8913 17.7883 25.8008 17.785C23.8074 17.712 23.7591 15.2393 24.3787 13.3431C24.6734 12.4411 24.7968 11.4628 24.7158 10.45C24.6688 9.90586 24.5619 9.38168 24.4037 8.88228C24.0671 7.8204 24.3979 6.54279 25.5075 6.44416C28.6108 6.175 31.3817 8.48666 31.6508 11.6217Z" fill="white"/>
<path d="M34.8175 26.2675C34.6909 27.8033 33.7092 29.1333 32.0625 30.0358C31.6311 30.2731 31.1691 30.4763 30.6852 30.6454C29.2403 31.1503 28.2949 29.1214 28.4367 27.5975C28.595 25.6341 27.6609 23.75 25.7925 22.2458C24.7592 21.4284 24.9627 19.738 26.2782 19.8124C28.6781 19.9481 31.0545 20.7275 32.7592 22.1033C34.2159 23.275 34.96 24.7475 34.8175 26.2675Z" fill="white"/>
</svg>
