<svg width="206" height="46" viewBox="0 0 206 46" fill="none" xmlns="http://www.w3.org/2000/svg">
<path d="M47.3033 21.7594L45.6783 18.9463L40.7455 10.3999C40.7222 10.3594 40.7125 10.3126 40.7178 10.2662C40.7231 10.2198 40.7431 10.1763 40.775 10.1422C42.3999 8.34464 42.9591 5.56209 41.4771 2.80793C41.0234 1.97107 40.3323 1.28714 39.4907 0.842227C35.5593 -1.24578 31.6072 0.808373 30.4933 4.15661C30.4792 4.20117 30.4513 4.24006 30.4136 4.26757C30.3759 4.29509 30.3303 4.30978 30.2836 4.3095H17.9095C17.583 4.30867 17.2621 4.39394 16.9791 4.55672C16.6961 4.7195 16.4611 4.95403 16.2976 5.23666L14.6748 8.04433L11.806 13.0143C11.6411 13.3024 11.3921 13.5332 11.0922 13.6757C10.7924 13.8182 10.4562 13.8656 10.1286 13.8115C8.47088 13.5363 6.65152 13.7263 4.81468 14.5191C3.39501 15.1296 1.67175 16.7589 1.00232 18.148C-2.1286 24.6501 2.5312 31.0496 8.67837 31.0496C9.66539 31.0504 10.6453 30.8824 11.5756 30.5527C11.624 30.5347 11.6773 30.5345 11.7259 30.5521C11.7745 30.5697 11.8152 30.6039 11.841 30.6488L15.2493 36.5513L16.8721 39.3634C17.035 39.6455 17.2693 39.8799 17.5515 40.0428C17.8336 40.2058 18.1537 40.2916 18.4796 40.2916H28.7667C28.8132 40.2916 28.8586 40.3064 28.8961 40.3339C28.9336 40.3614 28.9613 40.4001 28.9753 40.4445C29.3321 41.5245 29.9243 42.5119 30.7091 43.3352C31.4939 44.1585 32.4517 44.7973 33.5134 45.2055C34.5751 45.6136 35.7141 45.7809 36.8484 45.6953C37.9826 45.6097 39.0836 45.2733 40.072 44.7104C41.0604 44.1475 41.9115 43.3722 42.5638 42.4404C43.2161 41.5086 43.6534 40.4435 43.844 39.3222C44.0347 38.2008 43.974 37.0511 43.6662 35.9561C43.3585 34.8611 42.8115 33.848 42.0647 32.9901C42.0339 32.9558 42.0147 32.9125 42.01 32.8666C42.0053 32.8207 42.0153 32.7745 42.0385 32.7346L45.6783 26.428L47.3033 23.617C47.4664 23.3347 47.5523 23.0143 47.5523 22.6882C47.5523 22.3621 47.4664 22.0418 47.3033 21.7594ZM34.203 4.8588C34.8385 3.78204 36.2953 3.25021 37.715 4.12057C37.8713 4.21574 38.0065 4.3417 38.1125 4.49078C38.6465 5.25522 38.7426 6 38.5832 6.64541C38.4993 6.97653 38.3453 7.28579 38.1316 7.55232C37.9179 7.81885 37.6496 8.03645 37.3447 8.19043C37.0397 8.34441 36.7053 8.43118 36.364 8.4449C36.0227 8.45862 35.6824 8.39896 35.3661 8.26995C35.0498 8.14093 34.7649 7.94557 34.5305 7.69705C34.2962 7.44852 34.1178 7.15262 34.0076 6.8293C33.8973 6.50598 33.8577 6.16278 33.8914 5.82285C33.9251 5.48292 34.0314 5.15418 34.203 4.8588ZM13.7455 23.2053C13.5817 24.1915 13.1344 25.1087 12.4582 25.845C11.7821 26.5813 10.9062 27.1049 9.93751 27.3519C8.757 27.6522 7.41814 27.5299 6.07492 26.8812C5.32929 26.5196 4.71366 25.9364 4.31234 25.2114C2.12823 21.2473 4.93044 17.2318 8.68056 17.2318C8.90379 17.231 9.12678 17.2463 9.3478 17.2777C10.2277 17.3895 11.0629 17.7303 11.77 18.266C12.0852 18.5031 12.3721 18.7758 12.6251 19.0784C13.1952 19.7588 13.5773 20.5766 13.7335 21.4504C13.7898 21.7536 13.818 22.0615 13.8176 22.3699C13.818 22.651 13.7939 22.9317 13.7455 23.2086V23.2053ZM14.7349 16.1507L14.7295 16.1452C14.6534 16.0715 14.6042 15.9746 14.5895 15.8697C14.5749 15.7648 14.5957 15.6581 14.6486 15.5664L18.4555 8.97367C18.6184 8.69112 18.8528 8.45646 19.1352 8.29332C19.4176 8.13017 19.738 8.04429 20.0641 8.04433H27.8472C27.9432 8.0445 28.0365 8.0763 28.1126 8.13481C28.1888 8.19333 28.2435 8.27529 28.2684 8.36803C28.2932 8.46078 28.2868 8.55913 28.2502 8.64787C28.2135 8.73662 28.1487 8.81082 28.0656 8.859L15.3028 16.2238C15.2138 16.2761 15.1102 16.2978 15.0077 16.2858C14.9052 16.2738 14.8094 16.2286 14.7349 16.1572V16.1507ZM27.738 36.5513H20.6397C20.3136 36.5515 19.9933 36.4658 19.7109 36.3028C19.4286 36.1399 19.1941 35.9054 19.0311 35.6231L15.6817 29.8221C15.6216 29.718 15.5976 29.597 15.6133 29.4778C15.629 29.3587 15.6835 29.248 15.7685 29.163C15.8535 29.078 15.9642 29.0234 16.0833 29.0077C16.2025 28.9921 16.3235 29.0161 16.4276 29.0762L27.9455 35.7257C28.0336 35.7708 28.1038 35.8445 28.1446 35.9347C28.1854 36.0249 28.1943 36.1262 28.17 36.2222C28.1456 36.3181 28.0894 36.4029 28.0105 36.4627C27.9316 36.5225 27.8348 36.5538 27.7358 36.5513H27.738ZM30.6756 32.7805C30.6421 32.8177 30.5967 32.8422 30.5472 32.85C30.4977 32.8577 30.447 32.8482 30.4037 32.823L17.6627 25.4692C17.4611 25.3524 17.3021 25.1742 17.209 24.9606C17.1158 24.7471 17.0934 24.5093 17.1451 24.2821C17.4315 22.9988 17.4259 21.6676 17.1287 20.3867C17.0752 20.1585 17.0965 19.9192 17.1895 19.704C17.2825 19.4889 17.4423 19.3094 17.6452 19.192L31.7043 11.0726C31.8812 10.9706 32.0831 10.9202 32.2871 10.9272C32.4912 10.9341 32.6892 10.9981 32.8587 11.1119C33.1442 11.3059 33.446 11.4747 33.7607 11.6164C33.9517 11.703 34.1137 11.8428 34.2274 12.019C34.341 12.1953 34.4016 12.4005 34.4017 12.6102V30.4107C34.4018 30.4592 34.3858 30.5063 34.3561 30.5447C34.3264 30.583 34.2849 30.6104 34.2379 30.6226C32.8725 30.9977 31.6381 31.7448 30.6724 32.7805H30.6756ZM36.2757 42.0826C35.2028 42.0826 34.1738 41.6564 33.4151 40.8977C32.6564 40.139 32.2302 39.11 32.2302 38.0371C32.2302 36.9641 32.6564 35.9351 33.4151 35.1765C34.1738 34.4178 35.2028 33.9915 36.2757 33.9915C36.506 33.9915 36.7358 34.0116 36.9626 34.0516C37.9713 34.2116 38.8821 34.7476 39.5116 35.5519C40.1411 36.3562 40.4426 37.369 40.3556 38.3867C40.2686 39.4043 39.7994 40.3512 39.0424 41.0369C38.2855 41.7226 37.2969 42.0962 36.2757 42.0826ZM42.9875 23.6148L39.0484 30.4391C38.9918 30.5369 38.904 30.613 38.7991 30.6549C38.6941 30.6969 38.5781 30.7024 38.4696 30.6706H38.462C38.3704 30.6435 38.2901 30.5875 38.233 30.5109C38.1759 30.4343 38.1451 30.3413 38.1453 30.2458V15.0182C38.1418 14.9192 38.172 14.822 38.2309 14.7425C38.2899 14.6629 38.3741 14.6058 38.4698 14.5804C38.5655 14.555 38.667 14.5629 38.7577 14.6028C38.8483 14.6426 38.9227 14.7121 38.9687 14.7998L42.9875 21.7616C43.1493 22.0437 43.2342 22.3634 43.2336 22.6887C43.233 23.0139 43.147 23.3333 42.9842 23.6148H42.9875Z" fill="#4447E2"/>
<path d="M66.6238 26.3543V8.66299C66.623 8.59733 66.6351 8.53216 66.6597 8.47125C66.6842 8.41034 66.7206 8.3549 66.7667 8.30817C66.8128 8.26143 66.8678 8.22433 66.9284 8.199C66.9889 8.17368 67.0539 8.16064 67.1196 8.16065H71.1722C71.238 8.1605 71.3032 8.17342 71.364 8.19867C71.4248 8.22392 71.4799 8.26098 71.5262 8.30772C71.5726 8.35445 71.6091 8.40992 71.6339 8.47091C71.6586 8.5319 71.6709 8.59719 71.6702 8.66299V26.3543C71.6702 26.4861 71.6179 26.6124 71.5247 26.7056C71.4315 26.7988 71.3051 26.8512 71.1733 26.8512H67.1196C66.988 26.8509 66.8619 26.7984 66.769 26.7052C66.676 26.6121 66.6238 26.4859 66.6238 26.3543Z" fill="#4447E2"/>
<path d="M101.282 26.3543V15.7286C101.283 15.6174 101.245 15.5093 101.177 15.4217C101.109 15.3341 101.013 15.272 100.905 15.2454C100.797 15.2187 100.683 15.229 100.582 15.2746C100.48 15.3203 100.397 15.3986 100.345 15.4971L94.4855 26.5847C94.4435 26.6644 94.3807 26.7311 94.3038 26.7779C94.2268 26.8246 94.1387 26.8496 94.0486 26.8501H89.8027C89.7127 26.8496 89.6245 26.8246 89.5476 26.7779C89.4706 26.7311 89.4078 26.6644 89.3659 26.5847L83.5005 15.496C83.4486 15.3981 83.3654 15.3203 83.2643 15.2751C83.1631 15.2299 83.0497 15.2198 82.9421 15.2464C82.8346 15.273 82.739 15.3348 82.6706 15.422C82.6022 15.5091 82.5649 15.6167 82.5646 15.7275V26.3543C82.5646 26.4861 82.5122 26.6124 82.4191 26.7056C82.3259 26.7988 82.1995 26.8512 82.0677 26.8512H78.0162C77.8844 26.8512 77.758 26.7988 77.6648 26.7056C77.5716 26.6124 77.5193 26.4861 77.5193 26.3543V8.66299C77.5191 8.5977 77.5319 8.53302 77.5568 8.47267C77.5817 8.41232 77.6183 8.35749 77.6645 8.31132C77.7107 8.26515 77.7655 8.22855 77.8259 8.20363C77.8862 8.17871 77.9509 8.16596 78.0162 8.1661H84.076C84.1658 8.16629 84.2539 8.19087 84.3308 8.23723C84.4078 8.28358 84.4707 8.34997 84.5128 8.42929L91.4834 21.4903C91.526 21.5689 91.5891 21.6346 91.666 21.6804C91.7429 21.7262 91.8307 21.7503 91.9202 21.7503C92.0097 21.7503 92.0975 21.7262 92.1744 21.6804C92.2513 21.6346 92.3144 21.5689 92.357 21.4903L99.3353 8.42383C99.3773 8.34443 99.4402 8.27798 99.5172 8.23161C99.5941 8.18524 99.6822 8.16071 99.7721 8.16064H105.806C105.871 8.16078 105.936 8.17392 105.997 8.1993C106.057 8.22467 106.112 8.26179 106.158 8.30849C106.204 8.3552 106.241 8.41057 106.265 8.47142C106.29 8.53226 106.302 8.59737 106.301 8.66299V26.3543C106.301 26.4861 106.249 26.6124 106.156 26.7056C106.063 26.7988 105.936 26.8512 105.805 26.8512H101.779C101.648 26.8512 101.521 26.7988 101.428 26.7056C101.335 26.6124 101.282 26.4861 101.282 26.3543Z" fill="#4447E2"/>
<path d="M129.367 12.66C129.367 12.7418 129.346 12.8223 129.308 12.8945C129.269 12.9666 129.213 13.0281 129.145 13.0734C129.077 13.1188 128.999 13.1467 128.918 13.1546C128.836 13.1625 128.754 13.1501 128.679 13.1187C128.46 13.0302 128.226 12.9374 127.965 12.8391C127.383 12.6207 126.726 12.4147 125.993 12.221C125.205 12.0147 124.406 11.851 123.599 11.7307C122.721 11.5984 121.835 11.5327 120.947 11.5341C120.219 11.5341 119.6 11.5567 119.09 11.6018C118.657 11.6366 118.225 11.6957 117.798 11.7787C117.513 11.8311 117.235 11.9154 116.968 12.0299C116.799 12.1042 116.64 12.2027 116.499 12.3226C116.404 12.4024 116.331 12.5055 116.288 12.6218C116.258 12.7095 116.242 12.8012 116.24 12.8937C116.24 13.166 116.376 13.4041 116.649 13.6079C116.989 13.847 117.366 14.0313 117.763 14.1539C118.304 14.3321 118.854 14.4823 119.41 14.6039C120.036 14.7436 120.7 14.8892 121.402 15.0407C122.104 15.1921 122.83 15.3552 123.579 15.5299C124.327 15.7068 125.053 15.9132 125.755 16.1491C126.438 16.3764 127.104 16.6516 127.748 16.9725C128.342 17.2635 128.895 17.6306 129.394 18.0646C129.855 18.4691 130.234 18.959 130.509 19.5072C130.79 20.0874 130.93 20.7257 130.917 21.3702C130.917 22.2679 130.759 23.0389 130.441 23.6832C130.136 24.3101 129.703 24.866 129.17 25.3147C128.619 25.7708 127.996 26.1317 127.327 26.3828C126.614 26.6542 125.879 26.8615 125.129 27.002C124.361 27.1472 123.584 27.2428 122.803 27.2881C122.019 27.3325 121.273 27.3551 120.566 27.3558C118.844 27.3672 117.126 27.2147 115.433 26.9004C114.131 26.658 112.849 26.3189 111.598 25.8859C111.501 25.8508 111.418 25.7869 111.36 25.7029C111.301 25.6188 111.27 25.5188 111.27 25.4163V22.1172C111.27 22.033 111.292 21.9501 111.332 21.8765C111.373 21.8028 111.432 21.7408 111.504 21.6961C111.575 21.6514 111.657 21.6257 111.741 21.6212C111.825 21.6167 111.909 21.6337 111.984 21.6705C113.116 22.2103 114.301 22.6287 115.52 22.9188C117.194 23.3185 118.91 23.515 120.63 23.5041C121.507 23.5177 122.383 23.4607 123.251 23.3337C123.796 23.2562 124.328 23.1094 124.836 22.8969C125.217 22.72 125.476 22.5271 125.611 22.3181C125.736 22.1429 125.807 21.9349 125.815 21.7197C125.813 21.5665 125.775 21.4161 125.704 21.2803C125.633 21.1446 125.531 21.0273 125.407 20.9378C125.07 20.6817 124.694 20.4838 124.292 20.3524C123.753 20.1663 123.203 20.012 122.646 19.8905C122.02 19.7493 121.356 19.6087 120.653 19.469C119.951 19.3292 119.227 19.177 118.483 19.0125C117.74 18.8501 117.017 18.6576 116.313 18.4348C115.633 18.2213 114.967 17.9623 114.321 17.6594C113.728 17.3857 113.174 17.0335 112.675 16.6121C112.212 16.2249 111.831 15.7503 111.552 15.2154C111.27 14.6425 111.13 14.0103 111.143 13.372C111.143 12.5479 111.289 11.8362 111.58 11.2371C111.862 10.6512 112.262 10.1304 112.756 9.70817C113.269 9.27597 113.848 8.92934 114.471 8.68164C115.132 8.41416 115.818 8.20941 116.517 8.07009C117.236 7.92443 117.963 7.82412 118.694 7.76978C119.429 7.71663 120.128 7.68969 120.79 7.68896C121.518 7.68896 122.263 7.72537 123.027 7.79817C123.791 7.87097 124.546 7.97326 125.291 8.10504C126.034 8.23608 126.753 8.38788 127.448 8.56042C128.005 8.69875 128.529 8.84436 129.019 8.99725C129.121 9.02815 129.211 9.09101 129.274 9.17654C129.338 9.26208 129.372 9.36576 129.372 9.47229L129.367 12.66Z" fill="#4447E2"/>
<path d="M159.882 17.5185C159.882 19.1202 159.587 20.5373 158.997 21.7699C158.417 22.9871 157.548 24.0445 156.467 24.8506C155.369 25.6761 154.038 26.2997 152.475 26.7212C150.911 27.1428 149.154 27.3535 147.204 27.3535C145.254 27.3535 143.492 27.1428 141.92 26.7212C140.347 26.2997 139.007 25.6761 137.9 24.8506C136.811 24.0452 135.933 22.9872 135.342 21.7677C134.744 20.5395 134.445 19.1224 134.445 17.5163C134.445 15.9103 134.744 14.4935 135.342 13.266C135.934 12.0495 136.811 10.9946 137.9 10.1919C139.006 9.36631 140.346 8.74275 141.92 8.32121C143.494 7.89968 145.255 7.686 147.204 7.68018C149.154 7.68018 150.911 7.89094 152.475 8.31248C154.038 8.73401 155.369 9.36048 156.467 10.1919C157.549 10.9976 158.417 12.0551 158.997 13.2726C159.587 14.495 159.882 15.9103 159.882 17.5185ZM154.781 17.5185C154.779 16.8093 154.666 16.1048 154.447 15.4305C154.214 14.7188 153.807 14.0763 153.264 13.5609C152.698 13.0076 151.925 12.5584 150.945 12.2133C149.965 11.8682 148.718 11.696 147.204 11.6968C146.305 11.6877 145.407 11.7689 144.524 11.9392C143.833 12.0708 143.161 12.291 142.525 12.5944C142.003 12.8451 141.524 13.1768 141.105 13.5773C140.393 14.2693 139.906 15.161 139.711 16.1349C139.617 16.589 139.569 17.0515 139.568 17.5152C139.569 17.9859 139.617 18.4552 139.711 18.9163C139.806 19.3885 139.968 19.8446 140.193 20.2705C140.433 20.716 140.74 21.1214 141.105 21.4717C141.524 21.8695 142.003 22.1976 142.525 22.4437C143.161 22.746 143.833 22.9662 144.524 23.0989C145.408 23.2683 146.305 23.3481 147.204 23.337C148.718 23.337 149.965 23.1648 150.945 22.8204C151.925 22.4761 152.698 22.0272 153.264 21.4739C153.808 20.9581 154.214 20.3152 154.447 19.6032C154.666 18.93 154.779 18.2266 154.781 17.5185Z" fill="#4447E2"/>
<path d="M169.526 12.6428V14.9001C169.526 15.0319 169.578 15.1583 169.671 15.2515C169.765 15.3446 169.891 15.397 170.023 15.397H181.176C181.308 15.397 181.434 15.4493 181.527 15.5425C181.62 15.6357 181.673 15.7621 181.673 15.8939V18.8861C181.673 19.0179 181.62 19.1443 181.527 19.2375C181.434 19.3306 181.308 19.383 181.176 19.383H170.023C169.891 19.383 169.765 19.4354 169.671 19.5285C169.578 19.6217 169.526 19.7481 169.526 19.8799V26.3547C169.526 26.4865 169.474 26.6128 169.38 26.706C169.287 26.7992 169.161 26.8516 169.029 26.8516H164.976C164.845 26.8516 164.718 26.7992 164.625 26.706C164.532 26.6128 164.479 26.4865 164.479 26.3547V8.66339C164.479 8.5981 164.492 8.53342 164.517 8.47307C164.542 8.41272 164.579 8.35789 164.625 8.31172C164.671 8.26555 164.726 8.22896 164.786 8.20404C164.846 8.17912 164.911 8.16636 164.976 8.16651H181.842C181.974 8.16651 182.1 8.21886 182.193 8.31204C182.287 8.40522 182.339 8.53161 182.339 8.66339V11.6545C182.339 11.7863 182.287 11.9127 182.193 12.0059C182.1 12.0991 181.974 12.1514 181.842 12.1514H170.023C169.892 12.1514 169.766 12.203 169.673 12.295C169.58 12.387 169.527 12.512 169.526 12.6428Z" fill="#4447E2"/>
<path d="M197.126 12.7247V26.3547C197.125 26.4866 197.073 26.6129 196.979 26.7061C196.886 26.7992 196.759 26.8516 196.628 26.8516H192.576C192.444 26.8516 192.318 26.7992 192.224 26.7061C192.131 26.6129 192.078 26.4866 192.078 26.3547V12.7247C192.078 12.593 192.026 12.4666 191.933 12.3734C191.839 12.2802 191.713 12.2279 191.581 12.2279H184.646C184.514 12.2279 184.387 12.1755 184.294 12.0823C184.201 11.9891 184.149 11.8628 184.149 11.731V8.66339C184.149 8.53161 184.201 8.40522 184.294 8.31204C184.387 8.21885 184.514 8.1665 184.646 8.1665H204.572C204.704 8.1665 204.83 8.21885 204.924 8.31204C205.017 8.40522 205.069 8.53161 205.069 8.66339V11.7364C205.069 11.8682 205.017 11.9946 204.924 12.0878C204.83 12.181 204.704 12.2333 204.572 12.2333H197.62C197.49 12.2339 197.365 12.2857 197.272 12.3777C197.18 12.4696 197.127 12.5943 197.126 12.7247Z" fill="#4447E2"/>
<path d="M71.1404 32.3024C71.723 32.2989 72.3045 32.3523 72.8767 32.4619C73.3287 32.5501 73.7739 32.6702 74.209 32.8211C74.2501 32.8351 74.2858 32.8615 74.3111 32.8968C74.3363 32.932 74.3499 32.9743 74.3499 33.0177V34.0846C74.3499 34.1196 74.3411 34.154 74.3243 34.1847C74.3075 34.2153 74.2831 34.2412 74.2536 34.26C74.2241 34.2787 74.1903 34.2897 74.1554 34.2919C74.1205 34.2941 74.0856 34.2874 74.054 34.2725C73.9601 34.2277 73.8596 34.1829 73.7558 34.1392C73.5216 34.0403 73.2813 33.9568 73.0362 33.8892C72.7626 33.8152 72.4847 33.7583 72.204 33.7188C71.8944 33.6742 71.582 33.6523 71.2692 33.6533C70.9127 33.6489 70.5565 33.6785 70.2056 33.7417C69.9379 33.789 69.6768 33.8682 69.428 33.9776C69.2331 34.0625 69.0535 34.1787 68.8962 34.3216C68.7651 34.4429 68.6545 34.5845 68.5686 34.741C68.49 34.8826 68.4337 35.0355 68.4015 35.1942C68.3715 35.3419 68.3562 35.4923 68.3556 35.643C68.3567 35.7808 68.3699 35.9182 68.3949 36.0536C68.423 36.208 68.4726 36.3576 68.5424 36.4981C68.6213 36.6547 68.7237 36.7983 68.846 36.924C68.9929 37.0723 69.1643 37.1942 69.3527 37.2844C69.5915 37.3997 69.8439 37.4845 70.104 37.5366C70.4481 37.6049 70.7984 37.6367 71.1491 37.6316C71.3522 37.6316 71.5302 37.6251 71.6809 37.6131C71.8316 37.6011 71.9703 37.5836 72.0948 37.5617C72.2133 37.5415 72.3306 37.5152 72.4465 37.4831L72.6354 37.4296C72.6788 37.4172 72.7171 37.391 72.7443 37.355C72.7715 37.3189 72.7862 37.2749 72.7861 37.2298V36.8257C72.7859 36.7985 72.7804 36.7715 72.7699 36.7464C72.7593 36.7213 72.7439 36.6985 72.7246 36.6793C72.7052 36.6601 72.6822 36.645 72.657 36.6347C72.6318 36.6244 72.6048 36.6192 72.5775 36.6193H71.0694C71.0144 36.619 70.9618 36.5971 70.923 36.5582C70.8841 36.5194 70.8622 36.4668 70.8619 36.4118V35.4344C70.8622 35.3795 70.8841 35.3269 70.923 35.288C70.9618 35.2492 71.0144 35.2272 71.0694 35.2269H74.2953C74.3503 35.2269 74.4031 35.2488 74.442 35.2877C74.4809 35.3266 74.5028 35.3794 74.5028 35.4344V38.3229C74.5027 38.3673 74.4885 38.4105 74.4622 38.4463C74.4359 38.482 74.3988 38.5084 74.3565 38.5217C74.1675 38.5806 73.9601 38.6309 73.7373 38.6844C73.4544 38.7477 73.1639 38.8023 72.8636 38.8471C72.5633 38.8919 72.2619 38.9257 71.9594 38.9508C71.6569 38.976 71.3719 38.988 71.1043 38.988C70.7024 38.989 70.3009 38.9609 69.9031 38.9039C69.5385 38.8532 69.1797 38.7672 68.8318 38.6473C68.5128 38.5396 68.2083 38.3929 67.9254 38.2104C67.6591 38.0375 67.4233 37.8216 67.2275 37.5716C67.0298 37.3169 66.8779 37.0298 66.7787 36.7231C66.6677 36.3758 66.6139 36.0129 66.6193 35.6485C66.6141 35.2839 66.6702 34.921 66.7853 34.575C66.8899 34.2666 67.0473 33.9787 67.2505 33.7243C67.4532 33.474 67.6951 33.2583 67.9669 33.0854C68.2554 32.904 68.5644 32.7574 68.8875 32.6486C69.2363 32.529 69.5957 32.4431 69.9609 32.392C70.3514 32.3335 70.7456 32.3035 71.1404 32.3024Z" fill="#4447E2"/>
<path d="M94.6611 38.8238H93.3593C93.3043 38.8238 93.2515 38.802 93.2126 38.763C93.1737 38.7241 93.1519 38.6714 93.1519 38.6163V32.6766C93.1519 32.6216 93.1737 32.5688 93.2126 32.5299C93.2515 32.491 93.3043 32.4692 93.3593 32.4692H97.4535C97.8507 32.461 98.247 32.5091 98.6307 32.6122C98.9189 32.6903 99.187 32.8292 99.417 33.0195C99.6145 33.1906 99.7649 33.4094 99.8538 33.6551C99.9482 33.9215 99.9944 34.2025 99.9903 34.4851C99.9964 34.7242 99.9594 34.9624 99.8811 35.1884C99.8117 35.3775 99.7081 35.5523 99.5753 35.7038C99.4471 35.8485 99.2963 35.9713 99.1287 36.0675C99.0391 36.1199 98.9463 36.1669 98.8513 36.2105C98.8219 36.2234 98.7959 36.243 98.7754 36.2676C98.7548 36.2923 98.7403 36.3214 98.7329 36.3526C98.7255 36.3838 98.7254 36.4163 98.7327 36.4476C98.74 36.4788 98.7544 36.508 98.7748 36.5327L100.392 38.4842C100.417 38.5145 100.433 38.5513 100.438 38.5903C100.443 38.6293 100.437 38.6689 100.42 38.7045C100.403 38.7401 100.377 38.7702 100.344 38.7913C100.311 38.8124 100.272 38.8237 100.233 38.8238H98.7639C98.7332 38.824 98.7029 38.8173 98.6752 38.8043C98.6474 38.7912 98.6229 38.7722 98.6034 38.7485L96.8037 36.5589C96.784 36.5354 96.7595 36.5165 96.7317 36.5035C96.704 36.4905 96.6738 36.4837 96.6432 36.4835H95.0739C95.0188 36.4835 94.9661 36.5054 94.9272 36.5443C94.8882 36.5832 94.8664 36.636 94.8664 36.691V38.6163C94.8661 38.6709 94.8444 38.7232 94.8061 38.762C94.7677 38.8008 94.7156 38.823 94.6611 38.8238ZM98.2583 34.4763C98.2607 34.3695 98.2445 34.2631 98.2102 34.1618C98.1775 34.0755 98.1183 34.0017 98.041 33.9511C97.9429 33.8906 97.8338 33.8505 97.7199 33.8331C97.5539 33.8062 97.3858 33.7938 97.2176 33.796H95.0739C95.0188 33.796 94.9661 33.8179 94.9272 33.8568C94.8882 33.8957 94.8664 33.9485 94.8664 34.0035V34.9492C94.8664 35.0042 94.8882 35.057 94.9272 35.0959C94.9661 35.1348 95.0188 35.1567 95.0739 35.1567H97.2154C97.3836 35.1589 97.5517 35.1464 97.7177 35.1196C97.8316 35.1022 97.9408 35.0621 98.0388 35.0016C98.1161 34.951 98.1753 34.8772 98.2081 34.7909C98.243 34.6898 98.26 34.5833 98.2583 34.4763Z" fill="#4447E2"/>
<path d="M128.332 35.6472C128.342 36.1453 128.239 36.6391 128.032 37.092C127.835 37.5061 127.539 37.8657 127.171 38.1393C126.764 38.4361 126.303 38.6522 125.814 38.7759C124.635 39.0628 123.404 39.0628 122.224 38.7759C121.733 38.6524 121.269 38.4363 120.858 38.1393C120.486 37.8664 120.186 37.5069 119.985 37.092C119.784 36.6366 119.68 36.1444 119.68 35.6467C119.68 35.149 119.784 34.6567 119.985 34.2013C120.186 33.7864 120.486 33.427 120.858 33.154C121.269 32.857 121.733 32.6409 122.224 32.5174C123.404 32.2305 124.635 32.2305 125.814 32.5174C126.303 32.6411 126.764 32.8572 127.171 33.154C127.539 33.4279 127.835 33.7874 128.032 34.2013C128.239 34.6546 128.342 35.1488 128.332 35.6472ZM126.598 35.6472C126.599 35.406 126.562 35.1662 126.489 34.9363C126.41 34.6944 126.271 34.476 126.087 34.3007C125.86 34.0928 125.591 33.9367 125.297 33.8431C124.886 33.7141 124.457 33.6547 124.026 33.6673C123.72 33.6633 123.415 33.6903 123.114 33.7481C122.879 33.7931 122.651 33.8683 122.435 33.972C122.258 34.058 122.096 34.1711 121.954 34.3073C121.71 34.5434 121.545 34.8482 121.48 35.1809C121.448 35.3354 121.431 35.4927 121.432 35.6505C121.431 35.8104 121.448 35.9699 121.48 36.1266C121.512 36.2868 121.567 36.4416 121.643 36.5864C121.725 36.738 121.83 36.8762 121.954 36.9959C122.096 37.1298 122.258 37.2403 122.435 37.3235C122.651 37.4248 122.88 37.4982 123.114 37.5419C123.415 37.5997 123.72 37.6268 124.026 37.6227C124.457 37.6354 124.886 37.5759 125.297 37.4469C125.591 37.3534 125.86 37.1972 126.087 36.9893C126.271 36.814 126.41 36.5956 126.489 36.3538C126.561 36.1253 126.598 35.887 126.598 35.6472Z" fill="#4447E2"/>
<path d="M153.527 37.493C153.353 37.791 153.111 38.043 152.82 38.228C152.458 38.4588 152.06 38.6275 151.642 38.727C150.555 38.9717 149.427 38.9717 148.34 38.727C147.921 38.629 147.522 38.461 147.158 38.2302C146.867 38.0451 146.625 37.7931 146.451 37.4952C146.295 37.2216 146.214 36.9122 146.215 36.5975V32.5908C146.215 32.5358 146.237 32.4832 146.276 32.4444C146.315 32.4055 146.367 32.3836 146.422 32.3833H147.719C147.774 32.3836 147.826 32.4055 147.865 32.4444C147.904 32.4832 147.926 32.5358 147.926 32.5908V35.9827C147.925 36.1865 147.952 36.3894 148.007 36.5855C148.061 36.7763 148.166 36.9486 148.312 37.0835C148.493 37.2428 148.708 37.3582 148.941 37.421C149.284 37.5132 149.638 37.5552 149.993 37.5454C150.346 37.555 150.698 37.5131 151.038 37.421C151.27 37.358 151.485 37.2425 151.665 37.0835C151.81 36.9488 151.915 36.7763 151.968 36.5855C152.021 36.3891 152.048 36.1863 152.046 35.9827V32.5908C152.047 32.5358 152.069 32.4832 152.108 32.4444C152.146 32.4055 152.199 32.3836 152.254 32.3833H153.556C153.611 32.3836 153.663 32.4055 153.702 32.4444C153.741 32.4832 153.763 32.5358 153.763 32.5908V36.5975C153.764 36.9114 153.682 37.2201 153.527 37.493Z" fill="#4447E2"/>
<path d="M179.887 34.638C179.89 34.9349 179.843 35.2302 179.748 35.5117C179.658 35.7744 179.505 36.011 179.302 36.2008C179.072 36.4073 178.799 36.5612 178.504 36.6518C178.117 36.7683 177.714 36.8229 177.31 36.8134H174.669C174.614 36.8134 174.561 36.8352 174.522 36.8741C174.483 36.913 174.461 36.9658 174.461 37.0209V38.6131C174.461 38.6682 174.439 38.7209 174.4 38.7598C174.361 38.7988 174.308 38.8206 174.253 38.8206H172.953C172.898 38.8206 172.845 38.7988 172.806 38.7598C172.767 38.7209 172.745 38.6682 172.745 38.6131V32.6767C172.745 32.6217 172.767 32.5689 172.806 32.53C172.845 32.4911 172.898 32.4692 172.953 32.4692H177.306C177.709 32.4602 178.112 32.514 178.499 32.6287C178.795 32.7172 179.068 32.8705 179.297 33.0775C179.5 33.2664 179.654 33.5023 179.744 33.7644C179.84 34.0456 179.889 34.3409 179.887 34.638ZM178.152 34.6664C178.155 34.5363 178.134 34.4067 178.09 34.2842C178.049 34.1788 177.977 34.088 177.884 34.0232C177.771 33.9483 177.643 33.897 177.51 33.8725C177.322 33.8377 177.132 33.8216 176.941 33.8245H174.669C174.614 33.8245 174.561 33.8463 174.522 33.8852C174.483 33.9241 174.461 33.9768 174.461 34.032V35.254C174.461 35.3091 174.483 35.3619 174.522 35.4008C174.561 35.4396 174.614 35.4615 174.669 35.4615H176.941C177.131 35.4639 177.321 35.4508 177.51 35.4221C177.643 35.4037 177.77 35.3579 177.884 35.2878C177.976 35.2285 178.048 35.1423 178.09 35.041C178.134 34.9213 178.155 34.7941 178.152 34.6664Z" fill="#4447E2"/>
</svg>
