<svg width="32" height="32" viewBox="0 0 32 32" fill="none" xmlns="http://www.w3.org/2000/svg">
<path d="M21.6666 29.9999C22.9553 29.9999 24 28.9552 24 27.6666C24 26.3779 22.9553 25.3333 21.6666 25.3333C20.378 25.3333 19.3333 26.3779 19.3333 27.6666C19.3333 28.9552 20.378 29.9999 21.6666 29.9999Z" fill="white"/>
<path d="M11 29.9999C12.2886 29.9999 13.3333 28.9552 13.3333 27.6666C13.3333 26.3779 12.2886 25.3333 11 25.3333C9.71129 25.3333 8.66663 26.3779 8.66663 27.6666C8.66663 28.9552 9.71129 29.9999 11 29.9999Z" fill="white"/>
<path d="M6.45329 5.25342L6.18663 8.52008C6.13329 9.14675 6.62663 9.66675 7.25329 9.66675H27.6666C28.2266 9.66675 28.6933 9.24008 28.7333 8.68008C28.9066 6.32008 27.1066 4.40008 24.7466 4.40008H8.35996C8.22663 3.81341 7.95996 3.25341 7.54663 2.78675C6.87996 2.08008 5.94663 1.66675 4.98663 1.66675H2.66663C2.11996 1.66675 1.66663 2.12008 1.66663 2.66675C1.66663 3.21341 2.11996 3.66675 2.66663 3.66675H4.98663C5.39996 3.66675 5.78663 3.84008 6.06663 4.13341C6.34663 4.44008 6.47996 4.84008 6.45329 5.25342Z" fill="white"/>
<path d="M27.3467 11.6667H6.89332C6.33332 11.6667 5.87999 12.0934 5.82666 12.6401L5.34666 18.4401C5.15999 20.7201 6.94666 22.6667 9.22666 22.6667H24.0533C26.0533 22.6667 27.8133 21.0267 27.96 19.0267L28.4 12.8001C28.4533 12.1867 27.9733 11.6667 27.3467 11.6667Z" fill="white"/>
</svg>
