<svg width="32" height="32" viewBox="0 0 32 32" fill="none" xmlns="http://www.w3.org/2000/svg">
<path d="M15.9524 0.00832735C7.21244 0.039994 0.134943 7.14916 0.16661 15.8892C0.198276 24.6292 7.30744 31.7067 16.0474 31.675C24.7874 31.6433 31.8649 24.5342 31.8333 15.7942C31.8016 7.05416 24.6924 -0.00750598 15.9524 0.00832735ZM19.5783 16C20.8133 16.4275 22.4758 17.3458 22.4758 20.18C22.4758 22.6183 20.5599 24.5817 18.2166 24.5817H18.1058C17.5986 24.5817 17.1874 24.9928 17.1874 25.5C17.1874 26.1492 16.6491 26.6875 15.9999 26.6875C15.3508 26.6875 14.8124 26.1492 14.8124 25.5V25.1517C14.8124 24.8369 14.5572 24.5817 14.2424 24.5817C11.6458 24.5817 9.53994 22.3967 9.53994 19.705C9.53994 19.0558 10.0783 18.5175 10.7274 18.5175C11.3766 18.5175 11.9149 19.0558 11.9149 19.705C11.9149 21.0825 12.9599 22.2067 14.2424 22.2067C14.5572 22.2067 14.8124 21.9515 14.8124 21.6367V19.0668C14.8124 17.7403 13.9789 16.5569 12.7298 16.1102L12.4216 16C11.1866 15.5725 9.52411 14.6542 9.52411 11.82C9.52411 9.38166 11.4399 7.41833 13.7833 7.41833H13.8941C14.4013 7.41833 14.8124 7.00718 14.8124 6.49999C14.8124 5.85083 15.3508 5.31249 15.9999 5.31249C16.6491 5.31249 17.1874 5.85083 17.1874 6.49999V6.84833C17.1874 7.16313 17.4426 7.41833 17.7574 7.41833C20.3541 7.41833 22.4599 9.60333 22.4599 12.295C22.4599 12.9442 21.9216 13.4825 21.2724 13.4825C20.6233 13.4825 20.0849 12.9442 20.0849 12.295C20.0849 10.9175 19.0399 9.79333 17.7574 9.79333C17.4426 9.79333 17.1874 10.0485 17.1874 10.3633V12.9332C17.1874 14.2597 18.021 15.4431 19.27 15.8898L19.5783 16Z" fill="white"/>
</svg>
